<?xml version="1.0" encoding="UTF-8" standalone="no"?>
<!-- Generator: Gravit.io -->

<svg
   xmlns:dc="http://purl.org/dc/elements/1.1/"
   xmlns:cc="http://creativecommons.org/ns#"
   xmlns:rdf="http://www.w3.org/1999/02/22-rdf-syntax-ns#"
   xmlns:svg="http://www.w3.org/2000/svg"
   xmlns="http://www.w3.org/2000/svg"
   xmlns:sodipodi="http://sodipodi.sourceforge.net/DTD/sodipodi-0.dtd"
   xmlns:inkscape="http://www.inkscape.org/namespaces/inkscape"
   style="isolation:isolate"
   viewBox="0 0 500 500"
   width="500"
   height="500"
   version="1.1"
   id="svg68"
   sodipodi:docname="avatar.svg"
   inkscape:version="0.92.4 (5da689c313, 2019-01-14)"
   inkscape:export-filename="C:\wamp64\www\brc\assets\logo\avatar.png"
   inkscape:export-xdpi="96"
   inkscape:export-ydpi="96">
  <metadata
     id="metadata72">
    <rdf:RDF>
      <cc:Work
         rdf:about="">
        <dc:format>image/svg+xml</dc:format>
        <dc:type
           rdf:resource="http://purl.org/dc/dcmitype/StillImage" />
      </cc:Work>
    </rdf:RDF>
  </metadata>
  <sodipodi:namedview
     pagecolor="#ffffff"
     bordercolor="#666666"
     borderopacity="1"
     objecttolerance="10"
     gridtolerance="10"
     guidetolerance="10"
     inkscape:pageopacity="0"
     inkscape:pageshadow="2"
     inkscape:window-width="1366"
     inkscape:window-height="705"
     id="namedview70"
     showgrid="false"
     showguides="true"
     inkscape:guide-bbox="true"
     inkscape:zoom="0.944"
     inkscape:cx="249.17421"
     inkscape:cy="137.63551"
     inkscape:window-x="-8"
     inkscape:window-y="-8"
     inkscape:window-maximized="1"
     inkscape:current-layer="svg68">
    <sodipodi:guide
       position="457.62712,500"
       orientation="0,1"
       id="guide992"
       inkscape:locked="false" />
    <sodipodi:guide
       position="466.10169,-4.2372881"
       orientation="0,1"
       id="guide994"
       inkscape:locked="false" />
    <sodipodi:guide
       position="0,430.08475"
       orientation="1,0"
       id="guide996"
       inkscape:locked="false" />
    <sodipodi:guide
       position="497.88136,404.66102"
       orientation="1,0"
       id="guide998"
       inkscape:locked="false" />
  </sodipodi:namedview>
  <defs
     id="defs5">
    <clipPath
       id="_clipPath_9R3kpurnkP8D52HLFYMDX9gzmcg6Wkqn">
      <rect
         width="500"
         height="500"
         id="rect2" />
    </clipPath>
  </defs>
  <rect
     style="opacity:1;fill:#282a36;fill-opacity:1;stroke:none;stroke-width:6.26666689;stroke-linecap:round;stroke-linejoin:round;stroke-miterlimit:4;stroke-dasharray:none;stroke-dashoffset:0;stroke-opacity:1;paint-order:stroke markers fill"
     id="rect1000"
     width="790.25421"
     height="940.67798"
     x="-129.23729"
     y="-220.33899" />
  <path
     style="fill:#2b2e3b;fill-opacity:1;stroke-width:2.03975391"
     inkscape:connector-curvature="0"
     id="path990"
     d="M 347.57572,33.331442 C 469.23276,74.151007 556.98909,189.14419 556.98909,324.47369 556.98909,493.90586 419.43216,631.4628 250,631.4628 c -169.43216,0 -306.989093,-137.55694 -306.989093,-306.98911 0,-135.3295 87.756336,-250.322683 209.413373,-291.142248 10.29261,-20.128289 26.65144,-36.6400843 46.64919,-47.150939 -17.86621,-5.299287 -34.69623,-15.000355 -48.78887,-29.093017 -24.24861,-24.248594 -35.49582,-56.605213 -33.74776,-88.374376 31.77123,-1.74807 64.12785,9.49913 88.3744,33.747725 20.03445,20.032425 31.19191,45.60074 33.46216,71.80138 3.81638,-0.426309 7.69804,-0.632324 11.6266,-0.632324 3.92856,0 7.81022,0.206015 11.6266,0.632324 2.27025,-26.20064 13.42771,-51.768955 33.46216,-71.80138 24.24655,-24.248595 56.60317,-35.495795 88.3744,-33.747725 1.74806,31.769163 -9.49915,64.125782 -33.74774,88.374376 -14.09266,14.092662 -30.92268,23.79373 -48.78888,29.093017 19.99774,10.5108547 36.35657,27.02265 46.64918,47.150939 z" />
  <path
     d="M 335.45442,60.246976 C 441.99866,95.995747 518.8535,196.70395 518.8535,315.2222 518.8535,463.60673 398.38452,584.07571 250,584.07571 101.61548,584.07571 -18.8535,463.60673 -18.8535,315.2222 -18.8535,196.70395 58.001342,95.995747 164.54558,60.246976 173.5596,42.619115 187.88626,28.158491 205.3998,18.953343 189.75301,14.312358 175.01369,5.8164005 162.6717,-6.5256062 141.43537,-27.761929 131.58534,-56.09906 133.11625,-83.921715 c 27.82446,-1.530917 56.16159,8.319107 77.39612,29.555431 17.54568,17.543905 27.31711,39.936007 29.30534,62.8818834 C 243.16,8.1422481 246.55946,7.9618251 250,7.9618251 c 3.44054,0 6.84,0.180423 10.18229,0.5537743 1.98823,-22.9458764 11.75966,-45.3379784 29.30534,-62.8818834 21.23453,-21.236324 49.57166,-31.086348 77.39612,-29.555431 1.53091,27.822655 -8.31912,56.159786 -29.55544,77.3961088 -12.342,12.3420067 -27.08132,20.8379642 -42.7281,25.4789492 17.51353,9.205148 31.84019,23.665772 40.85421,41.293633 z"
     id="path988"
     inkscape:connector-curvature="0"
     style="fill:#363949;fill-opacity:1;stroke-width:1.78636634" />
  <path
     style="fill:#414458;fill-opacity:1;stroke-width:1.44793022"
     inkscape:connector-curvature="0"
     id="path986"
     d="m 319.26465,96.196605 c 86.35889,28.975985 148.65319,110.604505 148.65319,206.668875 0,120.27233 -97.64552,217.91785 -217.91784,217.91785 -120.27232,0 -217.917842,-97.64552 -217.917842,-217.91785 0,-96.06437 62.294303,-177.69289 148.653192,-206.668875 7.30627,-14.288173 18.91867,-26.009159 33.11418,-33.470345 -12.68242,-3.761727 -24.6293,-10.648082 -34.63304,-20.651833 -17.213,-17.212994 -25.19689,-40.1815117 -23.95602,-62.733024 22.55297,-1.240877 45.52149,6.74301 62.73303,23.9560049 14.22156,14.2201231 22.14175,32.3699281 23.7533,50.9685921 2.70907,-0.302618 5.46449,-0.448859 8.2532,-0.448859 2.78871,0 5.54413,0.146241 8.2532,0.448859 1.61155,-18.598664 9.53174,-36.748469 23.7533,-50.9685921 17.21154,-17.2129949 40.18006,-25.1968819 62.73303,-23.9560049 1.24087,22.5515123 -6.74302,45.52003 -23.95601,62.733024 -10.00375,10.003751 -21.95063,16.890106 -34.63305,20.651833 14.19551,7.461186 25.80791,19.182172 33.11418,33.470345 z" />
  <path
     d="m 311.16976,114.17142 c 76.26622,25.58959 131.28025,97.67827 131.28025,182.5157 0,106.21623 -86.23379,192.45002 -192.45001,192.45002 -106.21622,0 -192.450013,-86.23379 -192.450013,-192.45002 0,-84.83743 55.014033,-156.92611 131.280253,-182.5157 6.45239,-12.61833 16.70766,-22.969496 29.24416,-29.558701 -11.20024,-3.322098 -21.7509,-9.403652 -30.58552,-18.238275 -15.20133,-15.20133 -22.25215,-35.485541 -21.1563,-55.401482 19.91723,-1.0958568 40.20144,5.954962 55.40149,21.156292 12.5595,12.558232 19.55406,28.586889 20.97727,45.011946 2.39247,-0.267251 4.82586,-0.396401 7.28866,-0.396401 2.4628,0 4.89619,0.12915 7.28866,0.396401 1.42321,-16.425057 8.41777,-32.453714 20.97727,-45.011946 15.20005,-15.20133 35.48426,-22.2521488 55.40149,-21.156292 1.09585,19.915941 -5.95497,40.200152 -21.1563,55.401482 -8.83462,8.834623 -19.38528,14.916177 -30.58552,18.238275 12.5365,6.589205 22.79177,16.940371 29.24416,29.558701 z"
     id="path984"
     inkscape:connector-curvature="0"
     style="fill:#4c5067;fill-opacity:1;stroke-width:1.27871215" />
  <path
     style="fill:#575b75;fill-opacity:1;stroke-width:1.12940204"
     inkscape:connector-curvature="0"
     id="path982"
     d="m 304.02721,130.03155 c 67.36092,22.6016 115.95119,86.27277 115.95119,161.20408 0,93.81378 -76.16462,169.9784 -169.9784,169.9784 -93.81378,0 -169.978399,-76.16462 -169.978399,-169.9784 0,-74.93131 48.590269,-138.60248 115.951189,-161.20408 5.69897,-11.14494 14.75677,-20.28744 25.82943,-26.10725 -9.89243,-2.93419 -19.21113,-8.305626 -27.01417,-16.108665 -13.42633,-13.426332 -19.65385,-31.342037 -18.68596,-48.932474 17.59157,-0.967898 35.50728,5.259625 48.93248,18.685957 11.09298,11.091858 17.27081,25.248913 18.52784,39.756082 2.11311,-0.236045 4.26236,-0.350115 6.43759,-0.350115 2.17523,0 4.32448,0.11407 6.43759,0.350115 1.25703,-14.507169 7.43486,-28.664224 18.52784,-39.756082 13.4252,-13.426332 31.34091,-19.653855 48.93248,-18.685957 0.96789,17.590437 -5.25963,35.506142 -18.68596,48.932474 -7.80304,7.803039 -17.12174,13.174475 -27.01417,16.108665 11.07266,5.81981 20.13046,14.96231 25.82943,26.10725 z" />
  <path
     d="m 297.837,143.777 c 59.643,20.012 102.666,76.388 102.666,142.734 0,83.065 -67.438,150.503 -150.503,150.503 -83.065,0 -150.503,-67.438 -150.503,-150.503 0,-66.346 43.023,-122.722 102.666,-142.734 5.046,-9.868 13.066,-17.963 22.87,-23.116 -8.759,-2.598 -17.01,-7.354 -23.919,-14.263 -11.888,-11.888 -17.402,-27.751 -16.545,-43.326 15.576,-0.857 31.439,4.657 43.326,16.545 9.822,9.821 15.292,22.356 16.405,35.201 1.871,-0.209 3.774,-0.31 5.7,-0.31 1.926,0 3.829,0.101 5.7,0.31 1.113,-12.845 6.583,-25.38 16.405,-35.201 11.887,-11.888 27.75,-17.402 43.326,-16.545 0.857,15.575 -4.657,31.438 -16.545,43.326 -6.909,6.909 -15.16,11.665 -23.919,14.263 9.804,5.153 17.824,13.248 22.87,23.116 z"
     id="path7"
     inkscape:connector-curvature="0"
     style="fill:#ff5555;fill-opacity:1" />
  <path
     style="fill:#f8f8f2;fill-opacity:1"
     d="M 131.74805 243.50977 L 131.74805 351.01367 L 142.49805 351.01367 L 153.24805 351.01367 L 174.74805 351.01367 C 189.08205 351.01367 196.24805 343.84572 196.24805 329.51172 L 196.24805 308.01172 C 196.24805 301.33551 193.02743 297.77313 186.5957 297.31445 L 186.58594 297.22656 C 193.02401 296.872 196.24805 293.30496 196.24805 286.51172 L 196.24805 265.01172 C 196.24805 250.91705 189.08205 243.7491 174.74805 243.50977 L 153.24805 243.50977 L 142.49805 243.50977 L 131.74805 243.50977 z M 217.74805 243.50977 L 217.74805 351.01367 L 239.25 351.01367 L 239.25 308.01172 L 250 308.01172 C 256.68933 308.01172 260.27267 311.59505 260.75 318.76172 L 260.75 351.01367 L 282.25195 351.01367 L 282.25195 308.01172 C 282.25195 300.96439 278.66733 297.38105 271.5 297.26172 C 278.66733 297.26172 282.25195 293.67905 282.25195 286.51172 L 282.25195 265.01172 C 282.25195 250.91705 275.084 243.7491 260.75 243.50977 L 239.25 243.50977 L 228.5 243.50977 L 217.74805 243.50977 z M 325.25195 243.50977 C 310.91795 243.7491 303.75195 250.91705 303.75195 265.01172 L 303.75195 329.51172 C 303.75195 343.84572 310.91795 351.01367 325.25195 351.01367 L 346.75195 351.01367 C 361.08529 351.01367 368.25195 343.84572 368.25195 329.51172 L 368.25195 308.01172 L 346.75195 308.01172 L 346.75195 318.76172 C 346.27395 325.92839 342.69062 329.51172 336.00195 329.51172 C 329.31262 329.51172 325.72929 325.92839 325.25195 318.76172 L 325.25195 275.76172 C 325.72929 268.59505 329.31262 265.01172 336.00195 265.01172 C 342.69062 265.01172 346.27395 268.59505 346.75195 275.76172 L 346.75195 286.51172 L 368.25195 286.51172 L 368.25195 265.01172 C 368.25195 250.91705 361.08529 243.7491 346.75195 243.50977 L 325.25195 243.50977 z M 153.24805 265.01172 L 163.99805 265.01172 C 170.68738 265.01172 174.27071 268.59505 174.74805 275.76172 C 174.27071 282.92839 170.68738 286.51172 163.99805 286.51172 L 153.24805 286.51172 L 153.24805 265.01172 z M 239.25 265.01172 L 250 265.01172 C 256.68933 265.01172 260.27267 268.59505 260.75 275.76172 C 260.27267 282.92839 256.68933 286.51172 250 286.51172 L 239.25 286.51172 L 239.25 265.01172 z M 153.24805 308.01172 L 163.99805 308.01172 C 170.68738 308.01172 174.27071 311.59505 174.74805 318.76172 C 174.27071 325.92839 170.68738 329.51172 163.99805 329.51172 L 153.24805 329.51172 L 153.24805 308.01172 z "
     id="path10" />
  <path
     style="fill:#282a36;fill-opacity:1;stroke-width:0.11069035"
     inkscape:connector-curvature="0"
     id="path1002"
     d="m 433.14918,362.2993 c 6.70498,-1.88019 14.15183,0.60262 18.28102,6.67569 5.16973,7.60345 3.19386,17.97363 -4.4096,23.14336 -7.60346,5.16973 -17.97364,3.19386 -23.14336,-4.4096 -4.12919,-6.07306 -3.69971,-13.91114 0.5143,-19.45497 -0.15227,-1.21734 0.078,-2.45747 0.65475,-3.53932 -0.96345,0.30732 -2.01472,0.3855 -3.07714,0.18307 -1.82806,-0.34831 -3.32006,-1.45718 -4.21095,-2.93619 1.3724,-1.04788 3.16764,-1.53038 4.99561,-1.18202 1.5103,0.28768 2.79115,1.09466 3.69247,2.20116 0.15827,-0.13554 0.32616,-0.26324 0.50246,-0.38311 0.1763,-0.11987 0.35679,-0.22904 0.54104,-0.32639 -0.69755,-1.24504 -0.97699,-2.7329 -0.68915,-4.24317 0.34822,-1.82799 1.45708,-3.31999 2.93618,-4.21095 1.04782,1.37232 1.53033,3.16755 1.18203,4.99561 -0.20243,1.06242 -0.6617,2.01129 -1.30177,2.79424 1.21812,-0.13849 2.45606,0.10335 3.53211,0.69259 z" />
  <path
     d="m 118.14255,182.91238 c 2.82265,4.11135 2.85878,9.73294 -0.30493,13.93432 -3.96097,5.26011 -11.4473,6.31484 -16.70742,2.35387 -5.260111,-3.96097 -6.314849,-11.4473 -2.353879,-16.70741 3.163719,-4.20137 8.576469,-5.71984 13.307649,-4.14301 0.7901,-0.38428 1.68399,-0.51446 2.55054,-0.37327 -0.43077,-0.58219 -0.72648,-1.27682 -0.83454,-2.0438 -0.18593,-1.31969 0.22133,-2.58715 1.0183,-3.53258 1.02723,0.68845 1.7688,1.79409 1.95467,3.11373 0.15367,1.09028 -0.0977,2.1449 -0.63971,3.01139 0.12844,0.076 0.25376,0.16034 0.37573,0.25218 0.12196,0.0918 0.23764,0.18899 0.34618,0.29143 0.68299,-0.76034 1.62712,-1.29328 2.71741,-1.44684 1.31963,-0.18597 2.5871,0.22128 3.53259,1.01829 -0.6884,1.02718 -1.79403,1.76876 -3.11373,1.95468 -0.76697,0.10806 -1.51626,0.0158 -2.19481,-0.23737 0.37512,0.79382 0.49698,1.68887 0.34595,2.55439 z"
     id="path1004"
     inkscape:connector-curvature="0"
     style="fill:#282a36;fill-opacity:1;stroke-width:0.0792715" />
  <path
     style="fill:#282a36;fill-opacity:1;stroke-width:0.26850131"
     inkscape:connector-curvature="0"
     id="path1006"
     d="m 126.58101,405.72112 c 10.99865,12.82017 13.162,31.73821 4.03379,47.0357 -11.4285,19.15243 -36.256282,25.42325 -55.408699,13.99475 C 56.053677,455.32306 49.782846,430.4953 61.211352,411.34286 70.339574,396.04537 88.015957,388.966 104.5213,392.5578 c 2.52115,-1.58104 5.48412,-2.3441 8.45358,-2.18335 -1.66211,-1.80413 -2.9102,-4.03594 -3.55265,-6.57953 -1.10544,-4.37666 -0.1943,-8.79286 2.14621,-12.2661 3.70935,1.94534 6.60821,5.39931 7.7134,9.77583 0.91345,3.61579 0.45004,7.25863 -1.06058,10.37345 0.4601,0.20934 0.91279,0.44778 1.35688,0.71276 0.44408,0.26499 0.86894,0.55015 1.2716,0.85569 2.02391,-2.80854 5.00977,-4.94619 8.62569,-5.85927 4.37639,-1.10553 8.79259,-0.19454 12.26607,2.14621 -1.94519,3.70911 -5.39917,6.60799 -9.77581,7.7134 -2.54361,0.64245 -5.10041,0.60381 -7.47743,-0.002 1.55155,2.53699 2.28698,5.50689 2.09275,8.47646 z" />
</svg>
