<?xml version="1.0" encoding="UTF-8" standalone="no"?>
<!-- Generator: Gravit.io -->

<svg
   xmlns:dc="http://purl.org/dc/elements/1.1/"
   xmlns:cc="http://creativecommons.org/ns#"
   xmlns:rdf="http://www.w3.org/1999/02/22-rdf-syntax-ns#"
   xmlns:svg="http://www.w3.org/2000/svg"
   xmlns="http://www.w3.org/2000/svg"
   xmlns:sodipodi="http://sodipodi.sourceforge.net/DTD/sodipodi-0.dtd"
   xmlns:inkscape="http://www.inkscape.org/namespaces/inkscape"
   style="isolation:isolate"
   viewBox="0 0 406 50"
   width="406"
   height="50"
   version="1.1"
   id="svg72"
   sodipodi:docname="logo.svg"
   inkscape:export-filename="C:\wamp\www\brunocriacoes\disc\logo\logo-site.png"
   inkscape:export-xdpi="74"
   inkscape:export-ydpi="74"
   inkscape:version="0.92.4 (5da689c313, 2019-01-14)">
  <metadata
     id="metadata76">
    <rdf:RDF>
      <cc:Work
         rdf:about="">
        <dc:format>image/svg+xml</dc:format>
        <dc:type
           rdf:resource="http://purl.org/dc/dcmitype/StillImage" />
        <dc:title></dc:title>
      </cc:Work>
    </rdf:RDF>
  </metadata>
  <sodipodi:namedview
     pagecolor="#ffffff"
     bordercolor="#666666"
     borderopacity="1"
     objecttolerance="10"
     gridtolerance="10"
     guidetolerance="10"
     inkscape:pageopacity="0"
     inkscape:pageshadow="2"
     inkscape:window-width="1366"
     inkscape:window-height="705"
     id="namedview74"
     showgrid="false"
     inkscape:zoom="0.51364565"
     inkscape:cx="-185.45631"
     inkscape:cy="-2.8389228"
     inkscape:window-x="-8"
     inkscape:window-y="-8"
     inkscape:window-maximized="1"
     inkscape:current-layer="svg72"
     showguides="false"
     inkscape:guide-bbox="true">
    <sodipodi:guide
       position="106.00152,50.935797"
       orientation="0,1"
       id="guide823"
       inkscape:locked="false" />
    <sodipodi:guide
       position="80.533625,0.68832158"
       orientation="0,1"
       id="guide825"
       inkscape:locked="false" />
    <sodipodi:guide
       position="-0.68832158,29.597828"
       orientation="1,0"
       id="guide827"
       inkscape:locked="false" />
    <sodipodi:guide
       position="405.43514,58.649382"
       orientation="1,0"
       id="guide829"
       inkscape:locked="false" />
  </sodipodi:namedview>
  <defs
     id="defs5">
    <clipPath
       id="_clipPath_Q8Zf3YRyL1i0GRoKLbw8LxSPtnvlxCgb">
      <rect
         width="395"
         height="50"
         id="rect2"
         x="0"
         y="0" />
    </clipPath>
  </defs>
  <path
     style="fill:#ff5555;fill-opacity:1"
     d="M 13.251953 0.044921875 C 12.991973 0.032607422 12.732531 0.034578125 12.472656 0.048828125 C 12.358656 2.1278281 13.094641 4.2450313 14.681641 5.8320312 C 15.603641 6.7540313 16.703047 7.388375 17.873047 7.734375 C 16.564047 8.422375 15.493313 9.5033125 14.820312 10.820312 C 6.8593125 13.491312 1.1171875 21.017047 1.1171875 29.873047 C 1.1171875 40.960047 10.118078 49.962891 21.205078 49.962891 C 32.293078 49.962891 41.296875 40.960047 41.296875 29.873047 C 41.296875 21.017047 35.552797 13.491312 27.591797 10.820312 C 26.917797 9.5033125 25.848063 8.422375 24.539062 7.734375 C 25.708062 7.388375 26.810422 6.7540312 27.732422 5.8320312 C 29.319422 4.2450313 30.054453 2.1278281 29.939453 0.048828125 C 27.860453 -0.065171875 25.74325 0.6708125 24.15625 2.2578125 C 22.84525 3.5688125 22.115797 5.2410781 21.966797 6.9550781 C 21.716797 6.9280781 21.462078 6.9140625 21.205078 6.9140625 C 20.948078 6.9140625 20.694312 6.9280781 20.445312 6.9550781 C 20.296312 5.2410781 19.566859 3.5688125 18.255859 2.2578125 C 16.867234 0.8691875 15.071816 0.13112305 13.251953 0.044921875 z M 5.5585938 22.820312 L 6.9804688 22.820312 L 8.4042969 22.820312 L 11.248047 22.820312 C 13.144212 22.852035 14.09375 23.798962 14.09375 25.664062 L 14.09375 28.509766 C 14.09375 29.407163 13.661624 29.873605 12.8125 29.921875 L 12.816406 29.955078 C 13.656204 30.0209 14.09375 30.477941 14.09375 31.355469 L 14.09375 34.199219 C 14.09375 36.095383 13.144212 37.042969 11.248047 37.042969 L 8.4042969 37.042969 L 6.9804688 37.042969 L 5.5585938 37.042969 L 5.5585938 22.820312 z M 16.9375 22.820312 L 18.361328 22.820312 L 19.783203 22.820312 L 22.628906 22.820312 C 24.52573 22.852037 25.474609 23.798962 25.474609 25.664062 L 25.474609 28.509766 C 25.474609 29.458179 24.999194 29.931641 24.050781 29.931641 C 24.999194 29.947503 25.474609 30.422919 25.474609 31.355469 L 25.474609 37.042969 L 22.628906 37.042969 L 22.628906 32.777344 C 22.566118 31.828931 22.090704 31.355469 21.205078 31.355469 L 19.783203 31.355469 L 19.783203 37.042969 L 16.9375 37.042969 L 16.9375 22.820312 z M 31.166016 22.820312 L 34.009766 22.820312 C 35.90659 22.852036 36.853516 23.798963 36.853516 25.664062 L 36.853516 28.509766 L 34.009766 28.509766 L 34.009766 27.087891 C 33.946318 26.139479 33.470903 25.664062 32.585938 25.664062 C 31.700972 25.664063 31.229456 26.139479 31.166016 27.087891 L 31.166016 32.777344 C 31.229464 33.725757 31.700972 34.199219 32.585938 34.199219 C 33.470903 34.199219 33.946326 33.725757 34.009766 32.777344 L 34.009766 31.355469 L 36.853516 31.355469 L 36.853516 34.199219 C 36.853516 36.095383 35.90659 37.042969 34.009766 37.042969 L 31.166016 37.042969 C 29.269191 37.042969 28.318359 36.095383 28.318359 34.199219 L 28.318359 25.664062 C 28.318359 23.798962 29.269191 22.852042 31.166016 22.820312 z M 8.4042969 25.664062 L 8.4042969 28.509766 L 9.8261719 28.509766 C 10.711136 28.509766 11.184607 28.036305 11.248047 27.087891 C 11.184599 26.139479 10.711136 25.664062 9.8261719 25.664062 L 8.4042969 25.664062 z M 19.783203 25.664062 L 19.783203 28.509766 L 21.205078 28.509766 C 22.090704 28.509766 22.566126 28.036305 22.628906 27.087891 C 22.566118 26.139479 22.090704 25.664062 21.205078 25.664062 L 19.783203 25.664062 z M 8.4042969 31.355469 L 8.4042969 34.199219 L 9.8261719 34.199219 C 10.711136 34.199219 11.184607 33.725757 11.248047 32.777344 C 11.184599 31.828931 10.711136 31.355469 9.8261719 31.355469 L 8.4042969 31.355469 z "
     id="path7" />
  <path
     style="fill:#f8f8f2;fill-rule:evenodd;fill-opacity:1"
     inkscape:connector-curvature="0"
     id="path62"
     d="M 60.932643,40.067 V 12.095 h 8.705 v 0 q 5.951,0 8.639,1.694 v 0 0 q 2.688,1.693 2.688,5.385 v 0 0 q 0,2.507 -1.177,4.114 v 0 0 q -1.176,1.607 -3.128,1.932 v 0 0.192 0 q 2.66,0.593 3.836,2.219 v 0 0 q 1.177,1.626 1.177,4.324 v 0 0 q 0,3.827 -2.765,5.97 v 0 0 q -2.764,2.142 -7.509,2.142 v 0 z m 5.931,-23.112 v 6.218 h 3.444 v 0 q 2.411,0 3.492,-0.746 v 0 0 q 1.081,-0.746 1.081,-2.468 v 0 0 q 0,-1.607 -1.177,-2.306 v 0 0 q -1.176,-0.698 -3.721,-0.698 v 0 z m 3.674,10.925 h -3.674 v 7.289 h 3.865 v 0 q 2.449,0 3.616,-0.937 v 0 0 q 1.167,-0.938 1.167,-2.87 v 0 0 q 0,-3.482 -4.974,-3.482 z m 22.653,-10.925 v 7.557 h 1.913 v 0 q 2.813,0 4.152,-0.937 v 0 0 q 1.338997,-0.938 1.338997,-2.946 v 0 0 q 0,-1.99 -1.367997,-2.832 v 0 0 q -1.368,-0.842 -4.238,-0.842 v 0 z m 3.157,12.379 h -3.157 v 10.733 h -5.931 V 12.095 h 8.15 v 0 q 5.701997,0 8.437997,2.076 v 0 0 q 2.736,2.076 2.736,6.304 v 0 0 q 0,2.469 -1.359,4.391 v 0 0 q -1.358,1.923 -3.845,3.014 v 0 0 q 6.314,9.432 8.227,12.187 v 0 h -6.582 z M 129.98264,12.095 h 5.912 v 18.1 0 q 0,3.099 -1.387,5.434 v 0 0 q -1.387,2.334 -4.008,3.577 v 0 0 q -2.621,1.244 -6.199,1.244 v 0 0 q -5.396,0 -8.38,-2.765 v 0 0 q -2.985,-2.764 -2.985,-7.567 v 0 -18.023 h 5.912 v 17.124 0 q 0,3.234 1.301,4.745 v 0 0 q 1.301,1.512 4.305,1.512 v 0 0 q 2.908,0 4.219,-1.522 v 0 0 q 1.31,-1.521 1.31,-4.773 v 0 z m 37.577,0 v 27.972 h -7.538 l -12.169,-21.16 h -0.172 v 0 q 0.364,5.605 0.364,7.997 v 0 13.163 h -5.3 V 12.095 h 7.481 l 12.149,20.951 h 0.134 v 0 q -0.287,-5.453 -0.287,-7.711 v 0 -13.24 z m 32.43,13.948 v 0 0 q 0,6.945 -3.444,10.676 v 0 0 q -3.444,3.731 -9.872,3.731 v 0 0 q -6.429,0 -9.873,-3.731 v 0 0 q -3.444,-3.731 -3.444,-10.714 v 0 0 q 0,-6.984 3.454,-10.667 v 0 0 q 3.453,-3.683 9.901,-3.683 v 0 0 q 6.448,0 9.863,3.712 v 0 0 q 3.415,3.712 3.415,10.676 z m -20.415,0 v 0 0 q 0,4.688 1.78,7.06 v 0 0 q 1.779,2.373 5.319,2.373 v 0 0 q 7.098,0 7.098,-9.433 v 0 0 q 0,-9.451 -7.06,-9.451 v 0 0 q -3.54,0 -5.338,2.382 v 0 0 q -1.799,2.382 -1.799,7.069 z" />
  <path
     style="fill:#f8f8f2;fill-opacity:1;fill-rule:evenodd"
     inkscape:connector-curvature="0"
     id="path64"
     d="m 227.853,17.239 v 0 0 q -2.698,0 -4.209,2.21 v 0 0 q -1.512,2.21 -1.512,6.094 v 0 0 q 0,8.074 6.142,8.074 v 0 0 q 1.856,0 3.597,-0.516 v 0 0 q 1.741,-0.517 3.501,-1.244 v 0 6.39 0 q -3.501,1.55 -7.921,1.55 v 0 0 q -6.333,0 -9.71,-3.673 v 0 0 q -3.377,-3.674 -3.377,-10.619 v 0 0 q 0,-4.343 1.636,-7.634 v 0 0 q 1.636,-3.291 4.707,-5.061 v 0 0 q 3.071,-1.77 7.222,-1.77 v 0 0 q 4.535,0 8.668,1.971 v 0 l -2.315,5.95 v 0 q -1.55,-0.727 -3.1,-1.224 v 0 0 q -1.55,-0.498 -3.329,-0.498 z m 22.443,11.997 h -1.914 v 10.178 h -7.557 V 11.442 h 9.165 v 0 q 11.403,0 11.403,8.266 v 0 0 q 0,4.859 -4.745,7.519 v 0 l 8.15,12.187 h -8.571 z m -1.914,-12.073 v 6.39 h 1.416 v 0 q 3.961,0 3.961,-3.501 v 0 0 q 0,-2.889 -3.884,-2.889 v 0 z m 26.557,-0.038 V 28.88 39.414 h -7.596 V 11.442 h 7.596 z m 31.473,22.289 h -8.265 l -1.378,-5.242 h -9.088 l -1.416,5.242 h -8.303 l 9.126,-28.087 h 10.083 z M 289.25,27.973 h 5.95 l -1.205,-4.592 v 0 q -0.421,-1.531 -1.024,-3.96 v 0 0 q -0.602,-2.43 -0.794,-3.483 v 0 0 q -0.172,0.976 -0.679,3.215 v 0 0 q -0.507,2.238 -2.248,8.82 z m 32.64,-10.734 v 0 0 q -2.697,0 -4.209,2.21 v 0 0 q -1.511,2.21 -1.511,6.094 v 0 0 q 0,8.074 6.141,8.074 v 0 0 q 1.856,0 3.597,-0.516 v 0 0 q 1.741,-0.517 3.502,-1.244 v 0 6.39 0 q -3.502,1.55 -7.921,1.55 v 0 0 q -6.333,0 -9.71,-3.673 v 0 0 q -3.377,-3.674 -3.377,-10.619 v 0 0 q 0,-4.343 1.636,-7.634 v 0 0 q 1.636,-3.291 4.706,-5.061 v 0 0 q 3.071,-1.77 7.223,-1.77 v 0 0 q 4.534,0 8.667,1.971 v 0 l -2.315,5.95 v 0 q -1.55,-0.727 -3.099,-1.224 v 0 0 q -1.55,-0.498 -3.33,-0.498 z m 2.966,26.997 v 0 0 q 0,2.085 -1.435,3.338 v 0 0 q -1.435,1.254 -3.807,1.254 v 0 0 q -2.602,0 -4.076,-0.555 v 0 -3.922 0 q 1.588,0.516 2.813,0.516 v 0 0 q 0.995,0 0.995,-0.899 v 0 0 q 0,-0.631 -0.785,-1.119 v 0 0 q -0.784,-0.488 -2.047,-0.775 v 0 l 1.378,-2.66 h 3.884 l -0.173,0.555 v 0 q 1.837,0.746 2.545,1.77 v 0 0 q 0.708,1.024 0.708,2.497 z m 36.18,-18.846 v 0 0 q 0,7.06 -3.463,10.734 v 0 0 q -3.463,3.673 -10.14,3.673 v 0 0 q -6.582,0 -10.093,-3.693 v 0 0 q -3.511,-3.692 -3.511,-10.752 v 0 0 q 0,-6.984 3.492,-10.667 v 0 0 q 3.492,-3.683 10.15,-3.683 v 0 0 q 6.677,0 10.121,3.655 v 0 0 q 3.444,3.654 3.444,10.733 z m -19.247,0 v 0 0 q 0,8.112 5.644,8.112 v 0 0 q 2.87,0 4.257,-1.97 v 0 0 q 1.387,-1.971 1.387,-6.142 v 0 0 q 0,-4.19 -1.406,-6.189 v 0 0 q -1.407,-2 -4.2,-2 v 0 0 q -5.682,0 -5.682,8.189 z m 9.126,-16.148 v 0 0 q -0.861,0 -1.732,-0.287 v 0 0 q -0.87,-0.287 -1.712,-0.631 v 0 0 q -0.842,-0.345 -1.636,-0.632 v 0 0 q -0.794,-0.287 -1.502,-0.287 v 0 0 q -1.033,0 -1.377,1.875 v 0 h -3.444 v 0 q 0.21,-3.348 1.377,-4.946 v 0 0 q 1.167,-1.597 3.444,-1.597 v 0 0 q 0.727,0 1.55,0.287 v 0 0 q 0.823,0.287 1.665,0.631 v 0 0 q 0.841,0.345 1.664,0.632 v 0 0 q 0.823,0.287 1.55,0.287 v 0 0 q 0.555,0 0.88,-0.479 v 0 0 q 0.325,-0.478 0.497,-1.396 v 0 h 3.483 v 0 q -0.211,3.195 -1.416,4.869 v 0 0 Q 353,9.242 350.915,9.242 Z m 31.779,24.012 v 6.16 H 366.087 V 11.442 h 16.607 v 6.065 h -9.049 v 4.401 h 8.38 v 6.065 h -8.38 v 5.281 z m 23.189,-2.335 v 0 0 q 0,2.602 -1.32,4.621 v 0 0 q -1.32,2.018 -3.807,3.138 v 0 0 q -2.488,1.119 -5.836,1.119 v 0 0 q -2.793,0 -4.687,-0.392 v 0 0 q -1.894,-0.392 -3.942,-1.368 v 0 -6.735 0 q 2.162,1.11 4.497,1.732 v 0 0 q 2.334,0.621 4.285,0.621 v 0 0 q 1.684,0 2.468,-0.583 v 0 0 q 0.785,-0.584 0.785,-1.502 v 0 0 q 0,-0.574 -0.316,-1.005 v 0 0 q -0.316,-0.43 -1.014,-0.87 v 0 0 q -0.698,-0.44 -3.721,-1.799 v 0 0 q -2.736,-1.243 -4.104,-2.41 v 0 0 q -1.368,-1.167 -2.028,-2.679 v 0 0 q -0.66,-1.511 -0.66,-3.578 v 0 0 q 0,-3.865 2.812,-6.027 v 0 0 q 2.813,-2.162 7.73,-2.162 v 0 0 q 4.343,0 8.858,2.009 v 0 l -2.315,5.836 v 0 q -3.922,-1.799 -6.773,-1.799 v 0 0 q -1.473,0 -2.143,0.517 v 0 0 q -0.669,0.517 -0.669,1.282 v 0 0 q 0,0.823 0.851,1.473 v 0 0 q 0.852,0.651 4.621,2.373 v 0 0 q 3.616,1.626 5.022,3.491 v 0 0 q 1.406,1.866 1.406,4.697 z" />
</svg>
