<?xml version="1.0" encoding="UTF-8" standalone="no"?>
<!-- Created with Inkscape (http://www.inkscape.org/) -->

<svg
   xmlns:dc="http://purl.org/dc/elements/1.1/"
   xmlns:cc="http://creativecommons.org/ns#"
   xmlns:rdf="http://www.w3.org/1999/02/22-rdf-syntax-ns#"
   xmlns:svg="http://www.w3.org/2000/svg"
   xmlns="http://www.w3.org/2000/svg"
   xmlns:xlink="http://www.w3.org/1999/xlink"
   xmlns:sodipodi="http://sodipodi.sourceforge.net/DTD/sodipodi-0.dtd"
   xmlns:inkscape="http://www.inkscape.org/namespaces/inkscape"
   width="1000"
   height="1000"
   viewBox="0 0 264.58333 264.58334"
   version="1.1"
   id="svg8"
   inkscape:version="0.92.3 (2405546, 2018-03-11)"
   sodipodi:docname="_post_brc.svg"
   inkscape:export-filename="C:\Users\brraf_000\Desktop\logos\lu.png"
   inkscape:export-xdpi="85.513329"
   inkscape:export-ydpi="85.513329"
   enable-background="new">
  <defs
     id="defs2">
    <linearGradient
       id="linearGradient1583"
       inkscape:collect="always">
      <stop
         id="stop1579"
         offset="0"
         style="stop-color:#4d4d4d;stop-opacity:1" />
      <stop
         id="stop1581"
         offset="1"
         style="stop-color:#000000;stop-opacity:1" />
    </linearGradient>
    <linearGradient
       inkscape:collect="always"
       id="linearGradient1301">
      <stop
         style="stop-color:#f2f2f2;stop-opacity:1"
         offset="0"
         id="stop1297" />
      <stop
         style="stop-color:#cccccc;stop-opacity:1"
         offset="1"
         id="stop1299" />
    </linearGradient>
    <clipPath
       id="_clipPath_Q8Zf3YRyL1i0GRoKLbw8LxSPtnvlxCgb">
      <rect
         id="rect815"
         height="50"
         width="395" />
    </clipPath>
    <radialGradient
       inkscape:collect="always"
       xlink:href="#linearGradient1301"
       id="radialGradient1305"
       cx="-321.59134"
       cy="89.138771"
       fx="-321.59134"
       fy="89.138771"
       r="166.76302"
       gradientTransform="matrix(1.4972377,-1.3598465,1.189698,1.3098952,16.462742,-628.24995)"
       gradientUnits="userSpaceOnUse" />
    <mask
       maskUnits="userSpaceOnUse"
       id="mask1525">
      <rect
         style="opacity:0.84500002;vector-effect:none;fill:#f2f2f2;fill-opacity:1;stroke:none;stroke-width:0.86957967;stroke-linecap:butt;stroke-linejoin:round;stroke-miterlimit:4;stroke-dasharray:none;stroke-dashoffset:0;stroke-opacity:1;paint-order:stroke fill markers"
         id="rect1527"
         width="141.1183"
         height="145.92107"
         x="-303.61819"
         y="52.160713" />
    </mask>
    <radialGradient
       inkscape:collect="always"
       xlink:href="#linearGradient1583"
       id="radialGradient1305-5"
       cx="-321.59134"
       cy="89.138771"
       fx="-321.59134"
       fy="89.138771"
       r="166.76302"
       gradientTransform="matrix(1.4972377,-1.3598465,1.189698,1.3098952,506.98616,-366.77953)"
       gradientUnits="userSpaceOnUse" />
  </defs>
  <sodipodi:namedview
     id="base"
     pagecolor="#ffffff"
     bordercolor="#666666"
     borderopacity="1.0"
     inkscape:pageopacity="0.0"
     inkscape:pageshadow="2"
     inkscape:zoom="0.24748737"
     inkscape:cx="254.39302"
     inkscape:cy="524.2264"
     inkscape:document-units="mm"
     inkscape:current-layer="layer4"
     showgrid="false"
     units="px"
     inkscape:window-width="1366"
     inkscape:window-height="705"
     inkscape:window-x="-8"
     inkscape:window-y="-8"
     inkscape:window-maximized="1"
     showguides="true"
     inkscape:guide-bbox="true">
    <sodipodi:guide
       position="0,216.48832"
       orientation="1,0"
       id="guide1033"
       inkscape:locked="false" />
    <sodipodi:guide
       position="51.315749,264.59684"
       orientation="0,1"
       id="guide1035"
       inkscape:locked="false" />
    <sodipodi:guide
       position="264.06229,197.77946"
       orientation="1,0"
       id="guide1037"
       inkscape:locked="false" />
    <sodipodi:guide
       position="58.799295,0"
       orientation="0,1"
       id="guide1039"
       inkscape:locked="false" />
    <sodipodi:guide
       position="51.404761,232.83334"
       orientation="1,0"
       id="guide1215"
       inkscape:locked="false" />
    <sodipodi:guide
       position="105.07738,231.32143"
       orientation="1,0"
       id="guide1217"
       inkscape:locked="false" />
    <sodipodi:guide
       position="158.35315,264.59685"
       orientation="1,0"
       id="guide1219"
       inkscape:locked="false" />
    <sodipodi:guide
       position="210.15476,237.36905"
       orientation="1,0"
       id="guide1221"
       inkscape:locked="false" />
    <sodipodi:guide
       position="232.07738,212.42262"
       orientation="0,1"
       id="guide1223"
       inkscape:locked="false" />
    <sodipodi:guide
       position="236.61309,159.50596"
       orientation="0,1"
       id="guide1225"
       inkscape:locked="false" />
    <sodipodi:guide
       position="234.34524,107.34524"
       orientation="0,1"
       id="guide1227"
       inkscape:locked="false" />
    <sodipodi:guide
       position="243.41666,53.67262"
       orientation="0,1"
       id="guide1229"
       inkscape:locked="false" />
  </sodipodi:namedview>
  <metadata
     id="metadata5">
    <rdf:RDF>
      <cc:Work
         rdf:about="">
        <dc:format>image/svg+xml</dc:format>
        <dc:type
           rdf:resource="http://purl.org/dc/dcmitype/StillImage" />
        <dc:title></dc:title>
      </cc:Work>
    </rdf:RDF>
  </metadata>
  <g
     inkscape:label="bg"
     inkscape:groupmode="layer"
     id="layer1"
     transform="translate(0,-32.41665)"
     style="display:inline">
    <rect
       style="opacity:0.84500002;vector-effect:none;fill:url(#radialGradient1305);fill-opacity:1;stroke:none;stroke-width:0.90699995;stroke-linecap:butt;stroke-linejoin:round;stroke-miterlimit:4;stroke-dasharray:none;stroke-dashoffset:0;stroke-opacity:1;paint-order:stroke fill markers"
       id="rect1295"
       width="332.61905"
       height="346.98215"
       x="-522.27344"
       y="-262.40479" />
    <rect
       style="display:inline;opacity:0.84500002;vector-effect:none;fill:url(#radialGradient1305-5);fill-opacity:1;stroke:none;stroke-width:0.90700001;stroke-linecap:butt;stroke-linejoin:round;stroke-miterlimit:4;stroke-dasharray:none;stroke-dashoffset:0;stroke-opacity:1;paint-order:stroke fill markers"
       id="rect1295-1"
       width="332.61905"
       height="346.98215"
       x="-31.749998"
       y="-0.93435591" />
  </g>
  <g
     inkscape:groupmode="layer"
     id="layer4"
     inkscape:label="arte"
     style="" />
  <g
     inkscape:groupmode="layer"
     id="layer2"
     inkscape:label="logo"
     sodipodi:insensitive="true"
     style="display:none">
    <g
       id="g1135"
       transform="translate(1.7628094,-36.952364)">
      <path
         style="isolation:isolate;fill:#cd2027;stroke-width:0.26340944"
         inkscape:connector-curvature="0"
         d="m 133.34329,273.00826 c 2.097,0.70356 3.60976,2.68598 3.60976,5.01873 0,2.92043 -2.37121,5.29164 -5.29189,5.29164 -2.92043,0 -5.29164,-2.37121 -5.29164,-5.29164 0,-2.33275 1.51277,-4.31517 3.60976,-5.01873 0.17728,-0.34692 0.45939,-0.63166 0.8042,-0.81289 -0.3082,-0.0911 -0.59821,-0.2584 -0.84107,-0.50127 -0.41803,-0.41802 -0.6119,-0.97593 -0.58187,-1.52356 0.54763,-0.0301 1.10552,0.16384 1.52356,0.58187 0.34533,0.34533 0.53761,0.78602 0.57687,1.23751 0.0656,-0.007 0.13249,-0.0109 0.20019,-0.0109 0.0677,0 0.1346,0.004 0.20045,0.0109 0.0392,-0.45149 0.23154,-0.89218 0.57686,-1.23751 0.41804,-0.41803 0.97567,-0.61189 1.5233,-0.58187 0.0303,0.54763 -0.16358,1.10554 -0.5816,1.52356 -0.24287,0.24287 -0.53315,0.41014 -0.84108,0.50127 0.34481,0.18123 0.62666,0.46597 0.8042,0.81289 z"
         id="path820" />
      <path
         inkscape:connector-curvature="0"
         id="path823"
         d="m 127.50347,276.51479 v 3.77982 h 0.37813 0.37814 0.75576 c 0.50381,0 0.75576,-0.25194 0.75576,-0.75576 v -0.75576 c 0,-0.23337 -0.11591,-0.35466 -0.33904,-0.37196 l -0.001,-0.009 c 0.22563,-0.0128 0.34007,-0.13712 0.34007,-0.37557 v -0.75576 c 0,-0.49556 -0.25195,-0.74784 -0.75576,-0.75627 h -0.75575 -0.37814 z m 3.02355,0 v 3.77982 h 0.75627 v -1.51152 h 0.37762 c 0.23532,0 0.36146,0.12564 0.37813,0.37763 v 1.13389 h 0.75628 v -1.51152 c 0,-0.24801 -0.12614,-0.37415 -0.37813,-0.37813 0.25199,0 0.37813,-0.12614 0.37813,-0.37814 v -0.75576 c 0,-0.49556 -0.25228,-0.74784 -0.75628,-0.75627 h -0.75575 -0.37813 z m 3.78033,0 c -0.50399,0.008 -0.75627,0.26071 -0.75627,0.75627 v 2.26779 c 0,0.50382 0.25228,0.75576 0.75627,0.75576 h 0.75577 c 0.50398,0 0.75575,-0.25194 0.75575,-0.75576 v -0.75576 h -0.75575 v 0.37763 c -0.0168,0.252 -0.14301,0.37813 -0.37814,0.37813 -0.23514,0 -0.36077,-0.12613 -0.37763,-0.37813 v -1.51152 c 0.0168,-0.252 0.14249,-0.37814 0.37763,-0.37814 0.23513,0 0.36127,0.12614 0.37814,0.37814 v 0.37762 h 0.75575 v -0.75576 c 0,-0.49556 -0.25177,-0.74784 -0.75575,-0.75627 z m -6.04761,0.75627 h 0.37762 c 0.23513,0 0.36128,0.12563 0.37814,0.37763 -0.0168,0.25198 -0.14301,0.37813 -0.37814,0.37813 h -0.37762 z m 3.02355,0 h 0.37762 c 0.23532,0 0.36146,0.12614 0.37813,0.37814 -0.0167,0.25199 -0.14281,0.37762 -0.37813,0.37762 h -0.37762 z m -3.02355,1.51203 h 0.37762 c 0.23513,0 0.36128,0.12564 0.37814,0.37763 -0.0168,0.252 -0.14301,0.37813 -0.37814,0.37813 h -0.37762 z"
         style="isolation:isolate;fill:#ffffff;stroke-width:0.26340944" />
      <path
         style="isolation:isolate;fill:#cd2027;fill-rule:evenodd;stroke-width:0.30797094"
         inkscape:connector-curvature="0"
         d="m 139.65563,282.3771 v -8.61454 h 2.68089 v 0 q 1.83273,0 2.66056,0.52169 v 0 0 q 0.82783,0.5214 0.82783,1.65842 v 0 0 q 0,0.77208 -0.36249,1.26699 v 0 0 q -0.36217,0.49491 -0.96333,0.595 v 0 0.0591 0 q 0.8192,0.18263 1.18138,0.68339 v 0 0 q 0.36248,0.50076 0.36248,1.33167 v 0 0 q 0,1.17861 -0.85154,1.83858 v 0 0 q -0.85123,0.65967 -2.31256,0.65967 v 0 z m 1.82658,-7.11782 v 1.91497 h 1.06065 v 0 q 0.74252,0 1.07544,-0.22975 v 0 0 q 0.33292,-0.22975 0.33292,-0.76007 v 0 0 q 0,-0.49491 -0.36249,-0.71018 v 0 0 q -0.36218,-0.21497 -1.14596,-0.21497 v 0 z m 1.13149,3.36458 h -1.13149 v 2.24481 h 1.1903 v 0 q 0.75422,0 1.11363,-0.28857 v 0 0 q 0.3594,-0.28888 0.3594,-0.88388 v 0 0 q 0,-1.07236 -1.53184,-1.07236 z m 6.97646,-3.36458 v 2.32734 h 0.58915 v 0 q 0.86632,0 1.27869,-0.28857 v 0 0 q 0.41237,-0.28888 0.41237,-0.90728 v 0 0 q 0,-0.61287 -0.4213,-0.87217 v 0 0 q -0.4213,-0.25932 -1.30518,-0.25932 v 0 z m 0.97226,3.81238 h -0.97226 v 3.30544 h -1.82657 v -8.61454 h 2.50996 v 0 q 1.75604,0 2.59866,0.63934 v 0 0 q 0.8426,0.63935 0.8426,1.94143 v 0 0 q 0,0.7604 -0.41853,1.35232 v 0 0 q -0.41823,0.59222 -1.18414,0.92821 v 0 0 q 1.94452,2.90479 2.53367,3.75324 v 0 h -2.02706 z m 10.35861,-5.3091 h 1.82072 v 5.57425 0 q 0,0.95441 -0.42715,1.67353 v 0 0 q -0.42716,0.7188 -1.23435,1.1016 v 0 0 q -0.80719,0.38313 -1.90911,0.38313 v 0 0 q -1.66182,0 -2.5808,-0.85156 v 0 0 q -0.91929,-0.85122 -0.91929,-2.3304 v 0 -5.55055 h 1.82072 v 5.27368 0 q 0,0.99597 0.40067,1.46132 v 0 0 q 0.40067,0.46566 1.32582,0.46566 v 0 0 q 0.89558,0 1.29933,-0.46874 v 0 0 q 0.40344,-0.46842 0.40344,-1.46994 v 0 z m 11.57262,0 v 8.61454 h -2.32149 l -3.7477,-6.51665 h -0.053 v 0 q 0.11211,1.72617 0.11211,2.46284 v 0 4.05381 h -1.63225 v -8.61454 h 2.30394 l 3.74153,6.45228 h 0.0412 v 0 q -0.0884,-1.67936 -0.0884,-2.37476 v 0 -4.07752 z m 9.9875,4.29556 v 0 0 q 0,2.13886 -1.06066,3.28791 v 0 0 q -1.06064,1.14904 -3.04028,1.14904 v 0 0 q -1.97995,0 -3.0406,-1.14904 v 0 0 q -1.06065,-1.14905 -1.06065,-3.29961 v 0 0 q 0,-2.15087 1.06373,-3.28513 v 0 0 q 1.06342,-1.13425 3.04922,-1.13425 v 0 0 q 1.9858,0 3.03752,1.14318 v 0 0 q 1.05172,1.1432 1.05172,3.2879 z m -6.28723,0 v 0 0 q 0,1.44377 0.54819,2.17427 v 0 0 q 0.54788,0.73083 1.6381,0.73083 v 0 0 q 2.18598,0 2.18598,-2.9051 v 0 0 q 0,-2.91063 -2.17428,-2.91063 v 0 0 q -1.09021,0 -1.64394,0.73358 v 0 0 q -0.55405,0.73359 -0.55405,2.17705 z"
         id="path875" />
      <path
         style="isolation:isolate;fill:#212122;fill-rule:evenodd;stroke-width:0.30797094"
         inkscape:connector-curvature="0"
         d="m 191.48622,275.34675 v 0 0 q -0.8309,0 -1.29625,0.68061 v 0 0 q -0.46565,0.68062 -0.46565,1.87678 v 0 0 q 0,2.48656 1.89156,2.48656 v 0 0 q 0.57159,0 1.10777,-0.15893 v 0 0 q 0.53617,-0.15922 1.0782,-0.38311 v 0 1.96794 0 q -1.0782,0.47735 -2.43943,0.47735 v 0 0 q -1.95038,0 -2.99041,-1.13116 v 0 0 Q 187.332,280.0313 187.332,277.89244 v 0 0 q 0,-1.33753 0.50384,-2.35105 v 0 0 q 0.50384,-1.01355 1.44962,-1.55865 v 0 0 q 0.94578,-0.54511 2.22416,-0.54511 v 0 0 q 1.39666,0 2.66949,0.60701 v 0 l -0.71295,1.83243 v 0 q -0.47735,-0.22389 -0.95471,-0.37696 v 0 0 q -0.47735,-0.15336 -1.02523,-0.15336 z m 6.91179,3.69473 h -0.58945 v 3.13453 h -2.32734 v -8.61457 h 2.82255 v 0 q 3.51179,0 3.51179,2.54569 v 0 0 q 0,1.49643 -1.46132,2.31563 v 0 l 2.50997,3.75325 h -2.63962 z m -0.58945,-3.71814 v 1.96794 h 0.43608 v 0 q 1.21988,0 1.21988,-1.07822 v 0 0 q 0,-0.88972 -1.19616,-0.88972 v 0 z m 8.17878,-0.0117 v 3.6202 3.24417 h -2.33935 v -8.61457 h 2.33935 z m 9.69276,6.86437 h -2.54537 l -0.42439,-1.61439 h -2.79884 l -0.43609,1.61439 h -2.55708 l 2.81054,-8.64998 h 3.10528 z m -5.28539,-3.5235 h 1.83242 l -0.3711,-1.4142 v 0 q -0.12966,-0.4715 -0.31536,-1.21957 v 0 0 q -0.1854,-0.7483 -0.24453,-1.0726 v 0 0 q -0.053,0.30057 -0.20911,0.99012 v 0 0 q -0.15614,0.68924 -0.69232,2.71631 z m 10.05217,-3.30576 v 0 0 q -0.8306,0 -1.29625,0.68061 v 0 0 q -0.46534,0.68062 -0.46534,1.87678 v 0 0 q 0,2.48656 1.89124,2.48656 v 0 0 q 0.57159,0 1.10777,-0.15891 v 0 0 q 0.53619,-0.15923 1.07852,-0.38313 v 0 1.96794 0 q -1.07852,0.47735 -2.43943,0.47735 v 0 0 q -1.95039,0 -2.9904,-1.13116 v 0 0 q -1.04003,-1.13149 -1.04003,-3.27035 v 0 0 q 0,-1.33752 0.50385,-2.35105 v 0 0 q 0.50384,-1.01355 1.44931,-1.55865 v 0 0 q 0.94578,-0.54511 2.22447,-0.54511 v 0 0 q 1.39635,0 2.66919,0.60702 v 0 l -0.71295,1.83242 v 0 q -0.47736,-0.22389 -0.9544,-0.37696 v 0 0 q -0.47736,-0.15336 -1.02555,-0.15336 z m 0.91344,8.31429 v 0 0 q 0,0.64211 -0.44194,1.02801 v 0 0 q -0.44194,0.38619 -1.17245,0.38619 v 0 0 q -0.80133,0 -1.25528,-0.17092 v 0 -1.20786 0 q 0.48906,0.15891 0.86632,0.15891 v 0 0 q 0.30643,0 0.30643,-0.27687 v 0 0 q 0,-0.19432 -0.24175,-0.34461 v 0 0 q -0.24146,-0.1503 -0.63042,-0.23868 v 0 l 0.42439,-0.8192 h 1.19615 l -0.0533,0.17092 v 0 q 0.56574,0.22974 0.78378,0.5451 v 0 0 q 0.21805,0.31537 0.21805,0.76901 z m 11.14238,-5.80402 v 0 0 q 0,2.17428 -1.0665,3.30577 v 0 0 q -1.06649,1.13116 -3.12282,1.13116 v 0 0 q -2.02706,0 -3.10835,-1.13733 v 0 0 q -1.08129,-1.13703 -1.08129,-3.3113 v 0 0 q 0,-2.15086 1.07544,-3.28512 v 0 0 q 1.07543,-1.13426 3.1259,-1.13426 v 0 0 q 2.05633,0 3.11698,1.12563 v 0 0 q 1.06064,1.12533 1.06064,3.30545 z m -5.9275,0 v 0 0 q 0,2.49826 1.73818,2.49826 v 0 0 q 0.88387,0 1.31104,-0.6067 v 0 0 q 0.42715,-0.60701 0.42715,-1.89156 v 0 0 q 0,-1.29039 -0.433,-1.90604 v 0 0 q -0.43332,-0.61593 -1.29349,-0.61593 v 0 0 q -1.74988,0 -1.74988,2.52197 z m 2.81054,-4.97311 v 0 0 q -0.26517,0 -0.53341,-0.0883 v 0 0 q -0.26794,-0.0883 -0.52725,-0.19433 v 0 0 q -0.2593,-0.10627 -0.50383,-0.19464 v 0 0 q -0.24454,-0.0883 -0.46257,-0.0883 v 0 0 q -0.31815,0 -0.42408,0.57745 v 0 h -1.06066 v 0 q 0.0647,-1.03109 0.42407,-1.52323 v 0 0 q 0.35941,-0.49183 1.06067,-0.49183 v 0 0 q 0.22389,0 0.47734,0.0883 v 0 0 q 0.25346,0.0883 0.51277,0.19434 v 0 0 q 0.25901,0.10627 0.51247,0.19463 v 0 0 q 0.25346,0.0883 0.47735,0.0883 v 0 0 q 0.17093,0 0.27103,-0.1475 v 0 0 q 0.1001,-0.14722 0.15306,-0.42994 v 0 h 1.07265 v 0 q -0.0649,0.98397 -0.43608,1.49952 v 0 0 q -0.37142,0.51554 -1.01353,0.51554 z m 9.78701,7.39499 v 1.89711 h -5.11448 v -8.61457 h 5.11448 v 1.86785 h -2.78684 v 1.35538 h 2.58079 v 1.86784 h -2.58079 v 1.62639 z m 7.14153,-0.71911 v 0 0 q 0,0.80135 -0.40652,1.42314 v 0 0 q -0.40653,0.62148 -1.17244,0.9664 v 0 0 q -0.76624,0.34462 -1.79732,0.34462 v 0 0 q -0.86017,0 -1.44346,-0.12072 v 0 0 q -0.5833,-0.12072 -1.21402,-0.4213 v 0 -2.07419 0 q 0.66582,0.34185 1.38495,0.53342 v 0 0 q 0.71879,0.19123 1.31966,0.19123 v 0 0 q 0.51861,0 0.76006,-0.17954 v 0 0 q 0.24176,-0.17985 0.24176,-0.46256 v 0 0 q 0,-0.17679 -0.0973,-0.30951 v 0 0 q -0.0974,-0.13243 -0.31229,-0.26795 v 0 0 q -0.21496,-0.1355 -1.14596,-0.55403 v 0 0 q -0.84261,-0.38282 -1.26391,-0.74221 v 0 0 q -0.42131,-0.35941 -0.62457,-0.82506 v 0 0 q -0.20325,-0.46534 -0.20325,-1.10193 v 0 0 q 0,-1.19029 0.866,-1.85612 v 0 0 q 0.86633,-0.66585 2.38062,-0.66585 v 0 0 q 1.33752,0 2.728,0.61873 v 0 l -0.71295,1.79732 v 0 q -1.20786,-0.55405 -2.08589,-0.55405 v 0 0 q -0.45364,0 -0.65998,0.15922 v 0 0 q -0.20603,0.15923 -0.20603,0.39483 v 0 0 q 0,0.25345 0.26208,0.45363 v 0 0 q 0.2624,0.20049 1.42313,0.73081 v 0 0 q 1.11363,0.50077 1.54664,1.07513 v 0 0 q 0.433,0.57468 0.433,1.44654 z"
         id="path877" />
    </g>
  </g>
  <g
     inkscape:groupmode="layer"
     id="layer3"
     inkscape:label="logo branco"
     sodipodi:insensitive="true"
     style="display:inline">
    <g
       id="g1282">
      <path
         id="path820-6"
         transform="scale(0.26458333)"
         d="m 496.36133,881.45117 c -0.25883,-0.0122 -0.51862,-0.0103 -0.77735,0.004 -0.11349,2.06978 0.61927,4.17789 2.19922,5.75781 0.9179,0.91793 2.01484,1.55022 3.17969,1.89453 -1.30322,0.68497 -2.36903,1.76107 -3.03906,3.07227 -7.92563,2.65912 -13.64453,10.15205 -13.64453,18.96875 0,11.03784 8.96215,20 20,20 11.03879,0 20.00195,-8.96216 20.00195,-20 0,-8.8167 -5.71886,-16.30963 -13.64453,-18.96875 -0.67102,-1.3112 -1.73584,-2.3873 -3.03906,-3.07227 1.16383,-0.34443 2.26175,-0.9766 3.17968,-1.89453 1.57992,-1.57992 2.31179,-3.68803 2.19727,-5.75781 -2.06978,-0.11346 -4.17782,0.61926 -5.75781,2.19922 -1.30515,1.30518 -2.03153,2.96936 -2.17969,4.67578 -0.24888,-0.0261 -0.50194,-0.041 -0.75781,-0.041 -0.25588,0 -0.50793,0.0146 -0.75586,0.041 -0.14839,-1.70642 -0.87646,-3.3706 -2.18164,-4.67578 -1.3825,-1.38246 -3.16869,-2.11744 -4.98047,-2.20313 z m -6.36719,23.98047 h 1.42969 2.85742 c 1.90416,0.0319 2.85547,0.98639 2.85547,2.85938 v 2.85546 c 0,0.90123 -0.43238,1.37155 -1.28516,1.41993 l 0.004,0.0332 c 0.84332,0.0654 1.28125,0.52422 1.28125,1.40625 v 2.85742 c 0,1.9042 -0.95326,2.85547 -2.85742,2.85547 h -2.85547 -1.42969 -1.42773 v -14.28516 z m 9.99805,0.002 h 1.42969 1.42968 2.85547 c 1.90488,0.0319 2.85938,0.98444 2.85938,2.85743 v 2.85742 c 0,0.95244 -0.47729,1.42773 -1.42969,1.42773 0.9524,0.015 1.42969,0.49233 1.42969,1.42969 v 5.71289 h -2.85938 v -4.28516 c -0.063,-0.9524 -0.53833,-1.42773 -1.42773,-1.42773 h -1.42774 v 5.71289 h -2.85937 z m 14.28906,0 h 2.85547 c 1.90481,0.0319 2.85742,0.98444 2.85742,2.85743 v 2.85742 h -2.85742 v -1.42774 c -0.0638,-0.95244 -0.53906,-1.42968 -1.42774,-1.42968 -0.88871,0 -1.36423,0.47724 -1.42773,1.42968 v 5.71289 c 0.0637,0.95244 0.53902,1.42969 1.42773,1.42969 0.88868,0 1.36424,-0.47725 1.42774,-1.42969 v -1.42773 h 2.85742 v 2.85742 c 0,1.9042 -0.95261,2.85547 -2.85742,2.85547 h -2.85547 c -1.90484,0 -2.85937,-0.95127 -2.85937,-2.85547 v -8.57226 c -10e-6,-1.87299 0.95453,-2.82719 2.85937,-2.85743 z m -22.85742,2.85743 v 2.85742 h 1.42773 c 0.88868,0 1.36424,-0.47732 1.42774,-1.42969 -0.0637,-0.95244 -0.53906,-1.42773 -1.42774,-1.42773 z m 11.42773,0 v 2.85742 h 1.42774 c 0.8894,0 1.36461,-0.47533 1.42773,-1.42774 -0.063,-0.95244 -0.53833,-1.42968 -1.42773,-1.42968 z m -11.42773,5.71484 v 2.85742 h 1.42773 c 0.88868,0 1.36424,-0.47725 1.42774,-1.42969 -0.0637,-0.9524 -0.53906,-1.42773 -1.42774,-1.42773 z"
         style="isolation:isolate;fill:#ffffff;stroke-width:0.99556321"
         inkscape:connector-curvature="0" />
      <path
         style="isolation:isolate;fill:#ffffff;fill-rule:evenodd;stroke-width:0.30797094"
         inkscape:connector-curvature="0"
         d="m 141.41844,245.42474 v -8.61454 h 2.68089 v 0 q 1.83273,0 2.66056,0.52169 v 0 0 q 0.82783,0.5214 0.82783,1.65842 v 0 0 q 0,0.77208 -0.36249,1.26699 v 0 0 q -0.36217,0.49491 -0.96333,0.595 v 0 0.0591 0 q 0.8192,0.18263 1.18138,0.68339 v 0 0 q 0.36248,0.50076 0.36248,1.33167 v 0 0 q 0,1.17861 -0.85154,1.83858 v 0 0 q -0.85123,0.65967 -2.31256,0.65967 v 0 z m 1.82658,-7.11782 v 1.91497 h 1.06065 v 0 q 0.74252,0 1.07544,-0.22975 v 0 0 q 0.33292,-0.22975 0.33292,-0.76007 v 0 0 q 0,-0.49491 -0.36249,-0.71018 v 0 0 q -0.36218,-0.21497 -1.14596,-0.21497 v 0 z m 1.13149,3.36458 h -1.13149 v 2.24481 h 1.1903 v 0 q 0.75422,0 1.11363,-0.28857 v 0 0 q 0.3594,-0.28888 0.3594,-0.88388 v 0 0 q 0,-1.07236 -1.53184,-1.07236 z m 6.97646,-3.36458 v 2.32734 h 0.58915 v 0 q 0.86632,0 1.27869,-0.28857 v 0 0 q 0.41237,-0.28888 0.41237,-0.90728 v 0 0 q 0,-0.61287 -0.4213,-0.87217 v 0 0 q -0.4213,-0.25932 -1.30518,-0.25932 v 0 z m 0.97226,3.81238 h -0.97226 v 3.30544 h -1.82657 v -8.61454 h 2.50996 v 0 q 1.75604,0 2.59866,0.63934 v 0 0 q 0.8426,0.63935 0.8426,1.94143 v 0 0 q 0,0.7604 -0.41853,1.35232 v 0 0 q -0.41823,0.59222 -1.18414,0.92821 v 0 0 q 1.94452,2.90479 2.53367,3.75324 v 0 h -2.02706 z m 10.35861,-5.3091 h 1.82072 v 5.57425 0 q 0,0.95441 -0.42715,1.67353 v 0 0 q -0.42716,0.7188 -1.23435,1.1016 v 0 0 q -0.80719,0.38313 -1.90911,0.38313 v 0 0 q -1.66182,0 -2.5808,-0.85156 v 0 0 q -0.91929,-0.85122 -0.91929,-2.3304 v 0 -5.55055 h 1.82072 v 5.27368 0 q 0,0.99597 0.40067,1.46132 v 0 0 q 0.40067,0.46566 1.32582,0.46566 v 0 0 q 0.89558,0 1.29933,-0.46874 v 0 0 q 0.40344,-0.46842 0.40344,-1.46994 v 0 z m 11.57262,0 v 8.61454 h -2.32149 l -3.7477,-6.51665 h -0.053 v 0 q 0.11211,1.72617 0.11211,2.46284 v 0 4.05381 h -1.63225 v -8.61454 h 2.30394 l 3.74153,6.45228 h 0.0412 v 0 q -0.0884,-1.67936 -0.0884,-2.37476 v 0 -4.07752 z m 9.9875,4.29556 v 0 0 q 0,2.13886 -1.06066,3.28791 v 0 0 q -1.06064,1.14904 -3.04028,1.14904 v 0 0 q -1.97995,0 -3.0406,-1.14904 v 0 0 q -1.06065,-1.14905 -1.06065,-3.29961 v 0 0 q 0,-2.15087 1.06373,-3.28513 v 0 0 q 1.06342,-1.13425 3.04922,-1.13425 v 0 0 q 1.9858,0 3.03752,1.14318 v 0 0 q 1.05172,1.1432 1.05172,3.2879 z m -6.28723,0 v 0 0 q 0,1.44377 0.54819,2.17427 v 0 0 q 0.54788,0.73083 1.6381,0.73083 v 0 0 q 2.18598,0 2.18598,-2.9051 v 0 0 q 0,-2.91063 -2.17428,-2.91063 v 0 0 q -1.09021,0 -1.64394,0.73358 v 0 0 q -0.55405,0.73359 -0.55405,2.17705 z"
         id="path875-3" />
      <path
         style="isolation:isolate;fill:#ffffff;fill-rule:evenodd;stroke-width:0.30797094"
         inkscape:connector-curvature="0"
         d="m 193.24903,238.39439 v 0 0 q -0.8309,0 -1.29625,0.68061 v 0 0 q -0.46565,0.68062 -0.46565,1.87678 v 0 0 q 0,2.48656 1.89156,2.48656 v 0 0 q 0.57159,0 1.10777,-0.15893 v 0 0 q 0.53617,-0.15922 1.0782,-0.38311 v 0 1.96794 0 q -1.0782,0.47735 -2.43943,0.47735 v 0 0 q -1.95038,0 -2.99041,-1.13116 v 0 0 q -1.04001,-1.13149 -1.04001,-3.27035 v 0 0 q 0,-1.33753 0.50384,-2.35105 v 0 0 q 0.50384,-1.01355 1.44962,-1.55865 v 0 0 q 0.94578,-0.54511 2.22416,-0.54511 v 0 0 q 1.39666,0 2.66949,0.60701 v 0 l -0.71295,1.83243 v 0 q -0.47735,-0.22389 -0.95471,-0.37696 v 0 0 q -0.47735,-0.15336 -1.02523,-0.15336 z m 6.91179,3.69473 h -0.58945 v 3.13453 h -2.32734 v -8.61457 h 2.82255 v 0 q 3.51179,0 3.51179,2.54569 v 0 0 q 0,1.49643 -1.46132,2.31563 v 0 l 2.50997,3.75325 h -2.63962 z m -0.58945,-3.71814 v 1.96794 h 0.43608 v 0 q 1.21988,0 1.21988,-1.07822 v 0 0 q 0,-0.88972 -1.19616,-0.88972 v 0 z m 8.17878,-0.0117 v 3.6202 3.24417 h -2.33935 v -8.61457 h 2.33935 z m 9.69276,6.86437 h -2.54537 l -0.42439,-1.61439 h -2.79884 l -0.43609,1.61439 h -2.55708 l 2.81054,-8.64998 h 3.10528 z m -5.28539,-3.5235 h 1.83242 l -0.3711,-1.4142 v 0 q -0.12966,-0.4715 -0.31536,-1.21957 v 0 0 q -0.1854,-0.7483 -0.24453,-1.0726 v 0 0 q -0.053,0.30057 -0.20911,0.99012 v 0 0 q -0.15614,0.68924 -0.69232,2.71631 z m 10.05217,-3.30576 v 0 0 q -0.8306,0 -1.29625,0.68061 v 0 0 q -0.46534,0.68062 -0.46534,1.87678 v 0 0 q 0,2.48656 1.89124,2.48656 v 0 0 q 0.57159,0 1.10777,-0.15891 v 0 0 q 0.53619,-0.15923 1.07852,-0.38313 v 0 1.96794 0 q -1.07852,0.47735 -2.43943,0.47735 v 0 0 q -1.95039,0 -2.9904,-1.13116 v 0 0 q -1.04003,-1.13149 -1.04003,-3.27035 v 0 0 q 0,-1.33752 0.50385,-2.35105 v 0 0 q 0.50384,-1.01355 1.44931,-1.55865 v 0 0 q 0.94578,-0.54511 2.22447,-0.54511 v 0 0 q 1.39635,0 2.66919,0.60702 v 0 l -0.71295,1.83242 v 0 q -0.47736,-0.22389 -0.9544,-0.37696 v 0 0 q -0.47736,-0.15336 -1.02555,-0.15336 z m 0.91344,8.31429 v 0 0 q 0,0.64211 -0.44194,1.02801 v 0 0 q -0.44194,0.38619 -1.17245,0.38619 v 0 0 q -0.80133,0 -1.25528,-0.17092 v 0 -1.20786 0 q 0.48906,0.15891 0.86632,0.15891 v 0 0 q 0.30643,0 0.30643,-0.27687 v 0 0 q 0,-0.19432 -0.24175,-0.34461 v 0 0 q -0.24146,-0.1503 -0.63042,-0.23868 v 0 l 0.42439,-0.8192 h 1.19615 l -0.0533,0.17092 v 0 q 0.56574,0.22974 0.78378,0.5451 v 0 0 q 0.21805,0.31537 0.21805,0.76901 z m 11.14238,-5.80402 v 0 0 q 0,2.17428 -1.0665,3.30577 v 0 0 q -1.06649,1.13116 -3.12282,1.13116 v 0 0 q -2.02706,0 -3.10835,-1.13733 v 0 0 q -1.08129,-1.13703 -1.08129,-3.3113 v 0 0 q 0,-2.15086 1.07544,-3.28512 v 0 0 q 1.07543,-1.13426 3.1259,-1.13426 v 0 0 q 2.05633,0 3.11698,1.12563 v 0 0 q 1.06064,1.12533 1.06064,3.30545 z m -5.9275,0 v 0 0 q 0,2.49826 1.73818,2.49826 v 0 0 q 0.88387,0 1.31104,-0.6067 v 0 0 q 0.42715,-0.60701 0.42715,-1.89156 v 0 0 q 0,-1.29039 -0.433,-1.90604 v 0 0 q -0.43332,-0.61593 -1.29349,-0.61593 v 0 0 q -1.74988,0 -1.74988,2.52197 z m 2.81054,-4.97311 v 0 0 q -0.26517,0 -0.53341,-0.0883 v 0 0 q -0.26794,-0.0883 -0.52725,-0.19433 v 0 0 q -0.2593,-0.10627 -0.50383,-0.19464 v 0 0 q -0.24454,-0.0883 -0.46257,-0.0883 v 0 0 q -0.31815,0 -0.42408,0.57745 v 0 h -1.06066 v 0 q 0.0647,-1.03109 0.42407,-1.52323 v 0 0 q 0.35941,-0.49183 1.06067,-0.49183 v 0 0 q 0.22389,0 0.47734,0.0883 v 0 0 q 0.25346,0.0883 0.51277,0.19434 v 0 0 q 0.25901,0.10627 0.51247,0.19463 v 0 0 q 0.25346,0.0883 0.47735,0.0883 v 0 0 q 0.17093,0 0.27103,-0.1475 v 0 0 q 0.1001,-0.14722 0.15306,-0.42994 v 0 h 1.07265 v 0 q -0.0649,0.98397 -0.43608,1.49952 v 0 0 q -0.37142,0.51554 -1.01353,0.51554 z m 9.78701,7.39499 v 1.89711 h -5.11448 v -8.61457 h 5.11448 v 1.86785 h -2.78684 v 1.35538 h 2.58079 v 1.86784 h -2.58079 v 1.62639 z m 7.14153,-0.71911 v 0 0 q 0,0.80135 -0.40652,1.42314 v 0 0 q -0.40653,0.62148 -1.17244,0.9664 v 0 0 q -0.76624,0.34462 -1.79732,0.34462 v 0 0 q -0.86017,0 -1.44346,-0.12072 v 0 0 q -0.5833,-0.12072 -1.21402,-0.4213 v 0 -2.07419 0 q 0.66582,0.34185 1.38495,0.53342 v 0 0 q 0.71879,0.19123 1.31966,0.19123 v 0 0 q 0.51861,0 0.76006,-0.17954 v 0 0 q 0.24176,-0.17985 0.24176,-0.46256 v 0 0 q 0,-0.17679 -0.0973,-0.30951 v 0 0 q -0.0974,-0.13243 -0.31229,-0.26795 v 0 0 q -0.21496,-0.1355 -1.14596,-0.55403 v 0 0 q -0.84261,-0.38282 -1.26391,-0.74221 v 0 0 q -0.42131,-0.35941 -0.62457,-0.82506 v 0 0 q -0.20325,-0.46534 -0.20325,-1.10193 v 0 0 q 0,-1.19029 0.866,-1.85612 v 0 0 q 0.86633,-0.66585 2.38062,-0.66585 v 0 0 q 1.33752,0 2.728,0.61873 v 0 l -0.71295,1.79732 v 0 q -1.20786,-0.55405 -2.08589,-0.55405 v 0 0 q -0.45364,0 -0.65998,0.15922 v 0 0 q -0.20603,0.15923 -0.20603,0.39483 v 0 0 q 0,0.25345 0.26208,0.45363 v 0 0 q 0.2624,0.20049 1.42313,0.73081 v 0 0 q 1.11363,0.50077 1.54664,1.07513 v 0 0 q 0.433,0.57468 0.433,1.44654 z"
         id="path877-1" />
    </g>
  </g>
</svg>
