<?xml version="1.0" standalone="no"?><!-- Generator: Gravit.io --><svg xmlns="http://www.w3.org/2000/svg" xmlns:xlink="http://www.w3.org/1999/xlink" style="isolation:isolate" viewBox="0 0 500 500" width="500" height="500"><defs><clipPath id="_clipPath_9R3kpurnkP8D52HLFYMDX9gzmcg6Wkqn"><rect width="500" height="500"/></clipPath></defs><g clip-path="url(#_clipPath_9R3kpurnkP8D52HLFYMDX9gzmcg6Wkqn)"><g id="Grupo"><g id="Grupo"><g id="Grupo"><path d=" M 297.837 143.777 C 357.48 163.789 400.503 220.165 400.503 286.511 C 400.503 369.576 333.065 437.014 250 437.014 C 166.935 437.014 99.497 369.576 99.497 286.511 C 99.497 220.165 142.52 163.789 202.163 143.777 C 207.209 133.909 215.229 125.814 225.033 120.661 C 216.274 118.063 208.023 113.307 201.114 106.398 C 189.226 94.51 183.712 78.647 184.569 63.072 C 200.145 62.215 216.008 67.729 227.895 79.617 C 237.717 89.438 243.187 101.973 244.3 114.818 C 246.171 114.609 248.074 114.508 250 114.508 C 251.926 114.508 253.829 114.609 255.7 114.818 C 256.813 101.973 262.283 89.438 272.105 79.617 C 283.992 67.729 299.855 62.215 315.431 63.072 C 316.288 78.647 310.774 94.51 298.886 106.398 C 291.977 113.307 283.726 118.063 274.967 120.661 C 284.771 125.814 292.791 133.909 297.837 143.777 Z " fill="rgb(205,32,39)"/></g><path d=" M 303.751 265.011 L 325.252 265.011 L 325.252 329.512 L 303.751 329.512 L 303.751 265.011 Z " fill="rgb(255,255,255)"/><path d=" M 325.252 243.51 L 346.752 243.51 L 346.752 265.011 L 325.252 265.011 L 325.252 243.51 Z " fill="rgb(255,255,255)"/><path d=" M 239.25 265.011 L 239.25 286.511 L 271.5 286.511 L 271.5 308.012 L 239.25 308.012 L 239.25 351.013 L 217.749 351.013 L 217.749 243.51 L 228.5 243.51 L 239.25 243.51 L 260.75 243.51 L 260.75 265.011 L 239.25 265.011 Z " fill="rgb(255,255,255)"/><path d=" M 346.752 265.011 L 368.252 265.011 L 368.252 286.511 L 346.752 286.511 L 346.752 265.011 Z " fill="rgb(255,255,255)"/><path d=" M 260.75 265.011 L 282.251 265.011 L 282.251 286.511 L 260.75 286.511 L 260.75 265.011 Z " fill="rgb(255,255,255)"/><path d=" M 346.752 308.012 L 368.252 308.012 L 368.252 329.512 L 346.752 329.512 L 346.752 308.012 Z " fill="rgb(255,255,255)"/><path d=" M 260.75 308.012 L 282.251 308.012 L 282.251 351.013 L 260.75 351.013 L 260.75 308.012 Z " fill="rgb(255,255,255)"/><path d=" M 325.252 329.512 L 346.752 329.512 L 346.752 351.013 L 325.252 351.013 L 325.252 329.512 Z " fill="rgb(255,255,255)"/><path d=" M 260.75 243.51 Q 282.251 243.869 282.251 265.011 L 260.75 265.011 L 260.75 243.51 Z " fill="rgb(255,255,255)"/><path d=" M 346.752 243.51 Q 368.252 243.869 368.252 265.011 L 346.752 265.011 L 346.752 243.51 Z " fill="rgb(255,255,255)"/><path d=" M 325.252 243.51 Q 303.751 243.869 303.751 265.011 L 325.252 265.011 L 325.252 243.51 Z " fill="rgb(255,255,255)"/><path d=" M 185.499 297.262 Q 196.249 297.441 196.249 308.012 L 183.416 310.363 L 185.499 297.262 Z " fill="rgb(255,255,255)"/><path d=" M 271.5 297.262 Q 282.251 297.441 282.251 308.012 L 271.5 308.012 L 271.5 297.262 Z " fill="rgb(255,255,255)"/><path d=" M 346.752 329.512 L 346.752 351.013 Q 368.252 351.013 368.252 329.512 L 346.752 329.512 Z " fill="rgb(255,255,255)"/><path d=" M 325.252 329.512 L 325.252 351.013 Q 303.751 351.013 303.751 329.512 L 325.252 329.512 Z " fill="rgb(255,255,255)"/><path d=" M 271.5 286.511 L 271.5 297.262 Q 282.251 297.262 282.251 286.511 L 271.5 286.511 Z " fill="rgb(255,255,255)"/><path d=" M 250 265.011 L 260.75 265.011 L 260.75 275.761 Q 260.034 265.011 250 265.011 Z " fill="rgb(255,255,255)"/><path d=" M 336.002 265.011 L 346.752 265.011 L 346.752 275.761 Q 346.035 265.011 336.002 265.011 Z " fill="rgb(255,255,255)"/><path d=" M 250 308.012 L 260.75 308.012 L 260.75 318.762 Q 260.034 308.012 250 308.012 Z " fill="rgb(255,255,255)"/><g id="Grupo"><path d=" M 174.748 318.762 L 174.748 308.012 L 189.947 308.426 L 196.249 308.012 L 196.249 329.512 Q 196.249 351.013 174.748 351.013 L 153.248 351.013 L 142.498 351.013 L 131.748 351.013 L 131.748 243.51 L 142.498 243.51 L 153.248 243.51 L 174.748 243.51 L 174.748 265.011 L 153.248 265.011 L 153.248 286.511 L 185.499 286.511 L 188.062 311.778 L 184.081 317.225 L 174.748 318.762 Q 174.032 308.012 163.998 308.012 L 153.248 308.012 L 153.248 329.512 L 163.998 329.512 Q 163.998 329.512 163.998 329.512 Q 174.032 329.512 174.748 318.762 Z " fill="rgb(255,255,255)"/></g><path d=" M 336.002 329.512 L 346.752 329.512 L 346.752 318.762 Q 346.035 329.512 336.002 329.512 Z " fill="rgb(255,255,255)"/><path d=" M 336.002 265.011 L 325.252 265.011 L 325.252 275.761 Q 325.968 265.011 336.002 265.011 Z " fill="rgb(255,255,255)"/><path d=" M 336.002 329.512 L 325.252 329.512 L 325.252 318.762 Q 325.968 329.512 336.002 329.512 Z " fill="rgb(255,255,255)"/><path d=" M 178.215 291.876 L 179.891 293.133 L 185.499 297.262 Q 196.249 297.262 196.249 286.511 L 196.249 265.011 Q 196.249 243.869 174.748 243.51 L 173.596 263.326 L 163.998 265.011 Q 174.032 265.011 174.748 275.761 Q 174.032 286.511 163.998 286.511 L 177.772 287.989 L 178.215 291.876 Z " fill="rgb(255,255,255)"/><path d=" M 250 286.511 L 260.75 286.511 L 260.75 275.761 Q 260.034 286.511 250 286.511 Z " fill="rgb(255,255,255)"/></g></g></g></svg>