<?xml version="1.0" standalone="no"?><!-- Generator: Gravit.io --><svg xmlns="http://www.w3.org/2000/svg" xmlns:xlink="http://www.w3.org/1999/xlink" style="isolation:isolate" viewBox="0 0 395 50" width="395" height="50"><defs><clipPath id="_clipPath_Q8Zf3YRyL1i0GRoKLbw8LxSPtnvlxCgb"><rect width="395" height="50"/></clipPath></defs><g clip-path="url(#_clipPath_Q8Zf3YRyL1i0GRoKLbw8LxSPtnvlxCgb)"><g id="Grupo"><g id="Grupo"><path d=" M 27.592 10.821 C 35.553 13.492 41.296 21.018 41.296 29.874 C 41.296 40.961 32.294 49.963 21.206 49.963 C 10.119 49.963 1.117 40.961 1.117 29.874 C 1.117 21.018 6.86 13.492 14.821 10.821 C 15.494 9.504 16.565 8.423 17.874 7.735 C 16.704 7.389 15.603 6.754 14.681 5.832 C 13.094 4.245 12.358 2.127 12.472 0.048 C 14.551 -0.066 16.669 0.67 18.256 2.257 C 19.567 3.568 20.297 5.241 20.446 6.955 C 20.695 6.928 20.949 6.914 21.206 6.914 C 21.463 6.914 21.717 6.928 21.967 6.955 C 22.116 5.241 22.846 3.568 24.157 2.257 C 25.744 0.67 27.861 -0.066 29.94 0.048 C 30.055 2.127 29.319 4.245 27.732 5.832 C 26.81 6.754 25.708 7.389 24.539 7.735 C 25.848 8.423 26.918 9.504 27.592 10.821 Z " fill="rgb(205,32,39)"/></g><path d=" M 28.381 27.004 L 31.251 27.004 L 31.251 35.614 L 28.381 35.614 L 28.381 27.004 Z " fill="rgb(255,255,255)"/><path d=" M 31.251 24.134 L 34.121 24.134 L 34.121 27.004 L 31.251 27.004 L 31.251 24.134 Z " fill="rgb(255,255,255)"/><path d=" M 19.771 27.004 L 19.771 29.874 L 24.076 29.874 L 24.076 32.744 L 19.771 32.744 L 19.771 38.483 L 16.901 38.483 L 16.901 24.134 L 18.336 24.134 L 19.771 24.134 L 22.641 24.134 L 22.641 27.004 L 19.771 27.004 Z " fill="rgb(255,255,255)"/><path d=" M 34.121 27.004 L 36.991 27.004 L 36.991 29.874 L 34.121 29.874 L 34.121 27.004 Z " fill="rgb(255,255,255)"/><path d=" M 22.641 27.004 L 25.511 27.004 L 25.511 29.874 L 22.641 29.874 L 22.641 27.004 Z " fill="rgb(255,255,255)"/><path d=" M 34.121 32.744 L 36.991 32.744 L 36.991 35.614 L 34.121 35.614 L 34.121 32.744 Z " fill="rgb(255,255,255)"/><path d=" M 22.641 32.744 L 25.511 32.744 L 25.511 38.483 L 22.641 38.483 L 22.641 32.744 Z " fill="rgb(255,255,255)"/><path d=" M 31.251 35.614 L 34.121 35.614 L 34.121 38.483 L 31.251 38.483 L 31.251 35.614 Z " fill="rgb(255,255,255)"/><path d=" M 22.641 24.134 Q 25.511 24.182 25.511 27.004 L 22.641 27.004 L 22.641 24.134 Z " fill="rgb(255,255,255)"/><path d=" M 34.121 24.134 Q 36.991 24.182 36.991 27.004 L 34.121 27.004 L 34.121 24.134 Z " fill="rgb(255,255,255)"/><path d=" M 31.251 24.134 Q 28.381 24.182 28.381 27.004 L 31.251 27.004 L 31.251 24.134 Z " fill="rgb(255,255,255)"/><path d=" M 12.596 31.309 Q 14.031 31.333 14.031 32.744 L 12.318 33.057 L 12.596 31.309 Z " fill="rgb(255,255,255)"/><path d=" M 24.076 31.309 Q 25.511 31.333 25.511 32.744 L 24.076 32.744 L 24.076 31.309 Z " fill="rgb(255,255,255)"/><path d=" M 34.121 35.614 L 34.121 38.483 Q 36.991 38.483 36.991 35.614 L 34.121 35.614 Z " fill="rgb(255,255,255)"/><path d=" M 31.251 35.614 L 31.251 38.483 Q 28.381 38.483 28.381 35.614 L 31.251 35.614 Z " fill="rgb(255,255,255)"/><path d=" M 24.076 29.874 L 24.076 31.309 Q 25.511 31.309 25.511 29.874 L 24.076 29.874 Z " fill="rgb(255,255,255)"/><path d=" M 21.206 27.004 L 22.641 27.004 L 22.641 28.439 Q 22.546 27.004 21.206 27.004 Z " fill="rgb(255,255,255)"/><path d=" M 32.686 27.004 L 34.121 27.004 L 34.121 28.439 Q 34.025 27.004 32.686 27.004 Z " fill="rgb(255,255,255)"/><path d=" M 21.206 32.744 L 22.641 32.744 L 22.641 34.179 Q 22.546 32.744 21.206 32.744 Z " fill="rgb(255,255,255)"/><g id="Grupo"><path d=" M 11.162 34.179 L 11.162 32.744 L 13.19 32.799 L 14.031 32.744 L 14.031 35.614 Q 14.031 38.483 11.162 38.483 L 8.292 38.483 L 6.857 38.483 L 5.422 38.483 L 5.422 24.134 L 6.857 24.134 L 8.292 24.134 L 11.162 24.134 L 11.162 27.004 L 8.292 27.004 L 8.292 29.874 L 12.596 29.874 L 12.939 33.246 L 12.407 33.973 L 11.162 34.179 Q 11.066 32.744 9.727 32.744 L 8.292 32.744 L 8.292 35.614 L 9.727 35.614 Q 9.727 35.614 9.727 35.614 Q 11.066 35.614 11.162 34.179 Z " fill="rgb(255,255,255)"/></g><path d=" M 32.686 35.614 L 34.121 35.614 L 34.121 34.179 Q 34.025 35.614 32.686 35.614 Z " fill="rgb(255,255,255)"/><path d=" M 32.686 27.004 L 31.251 27.004 L 31.251 28.439 Q 31.347 27.004 32.686 27.004 Z " fill="rgb(255,255,255)"/><path d=" M 32.686 35.614 L 31.251 35.614 L 31.251 34.179 Q 31.347 35.614 32.686 35.614 Z " fill="rgb(255,255,255)"/><path d=" M 11.624 30.59 L 11.848 30.758 L 12.596 31.309 Q 14.031 31.309 14.031 29.874 L 14.031 27.004 Q 14.031 24.182 11.162 24.134 L 11.008 26.779 L 9.727 27.004 Q 11.066 27.004 11.162 28.439 Q 11.066 29.874 9.727 29.874 L 11.565 30.071 L 11.624 30.59 Z " fill="rgb(255,255,255)"/><path d=" M 21.206 29.874 L 22.641 29.874 L 22.641 28.439 Q 22.546 29.874 21.206 29.874 Z " fill="rgb(255,255,255)"/><g id="Grupo"><path d=" M 47.556 40.067 L 47.556 12.095 L 56.261 12.095 L 56.261 12.095 Q 62.212 12.095 64.9 13.789 L 64.9 13.789 L 64.9 13.789 Q 67.588 15.482 67.588 19.174 L 67.588 19.174 L 67.588 19.174 Q 67.588 21.681 66.411 23.288 L 66.411 23.288 L 66.411 23.288 Q 65.235 24.895 63.283 25.22 L 63.283 25.22 L 63.283 25.412 L 63.283 25.412 Q 65.943 26.005 67.119 27.631 L 67.119 27.631 L 67.119 27.631 Q 68.296 29.257 68.296 31.955 L 68.296 31.955 L 68.296 31.955 Q 68.296 35.782 65.531 37.925 L 65.531 37.925 L 65.531 37.925 Q 62.767 40.067 58.022 40.067 L 58.022 40.067 L 47.556 40.067 Z  M 53.487 16.955 L 53.487 23.173 L 56.931 23.173 L 56.931 23.173 Q 59.342 23.173 60.423 22.427 L 60.423 22.427 L 60.423 22.427 Q 61.504 21.681 61.504 19.959 L 61.504 19.959 L 61.504 19.959 Q 61.504 18.352 60.327 17.653 L 60.327 17.653 L 60.327 17.653 Q 59.151 16.955 56.606 16.955 L 56.606 16.955 L 53.487 16.955 Z  M 57.161 27.88 L 53.487 27.88 L 53.487 35.169 L 57.352 35.169 L 57.352 35.169 Q 59.801 35.169 60.968 34.232 L 60.968 34.232 L 60.968 34.232 Q 62.135 33.294 62.135 31.362 L 62.135 31.362 L 62.135 31.362 Q 62.135 27.88 57.161 27.88 L 57.161 27.88 Z  M 79.814 16.955 L 79.814 24.512 L 81.727 24.512 L 81.727 24.512 Q 84.54 24.512 85.879 23.575 L 85.879 23.575 L 85.879 23.575 Q 87.218 22.637 87.218 20.629 L 87.218 20.629 L 87.218 20.629 Q 87.218 18.639 85.85 17.797 L 85.85 17.797 L 85.85 17.797 Q 84.482 16.955 81.612 16.955 L 81.612 16.955 L 79.814 16.955 Z  M 82.971 29.334 L 79.814 29.334 L 79.814 40.067 L 73.883 40.067 L 73.883 12.095 L 82.033 12.095 L 82.033 12.095 Q 87.735 12.095 90.471 14.171 L 90.471 14.171 L 90.471 14.171 Q 93.207 16.247 93.207 20.475 L 93.207 20.475 L 93.207 20.475 Q 93.207 22.944 91.848 24.866 L 91.848 24.866 L 91.848 24.866 Q 90.49 26.789 88.003 27.88 L 88.003 27.88 L 88.003 27.88 Q 94.317 37.312 96.23 40.067 L 96.23 40.067 L 89.648 40.067 L 82.971 29.334 Z  M 116.606 12.095 L 122.518 12.095 L 122.518 30.195 L 122.518 30.195 Q 122.518 33.294 121.131 35.629 L 121.131 35.629 L 121.131 35.629 Q 119.744 37.963 117.123 39.206 L 117.123 39.206 L 117.123 39.206 Q 114.502 40.45 110.924 40.45 L 110.924 40.45 L 110.924 40.45 Q 105.528 40.45 102.544 37.685 L 102.544 37.685 L 102.544 37.685 Q 99.559 34.921 99.559 30.118 L 99.559 30.118 L 99.559 12.095 L 105.471 12.095 L 105.471 29.219 L 105.471 29.219 Q 105.471 32.453 106.772 33.964 L 106.772 33.964 L 106.772 33.964 Q 108.073 35.476 111.077 35.476 L 111.077 35.476 L 111.077 35.476 Q 113.985 35.476 115.296 33.954 L 115.296 33.954 L 115.296 33.954 Q 116.606 32.433 116.606 29.181 L 116.606 29.181 L 116.606 12.095 Z  M 154.183 12.095 L 154.183 40.067 L 146.645 40.067 L 134.476 18.907 L 134.304 18.907 L 134.304 18.907 Q 134.668 24.512 134.668 26.904 L 134.668 26.904 L 134.668 40.067 L 129.368 40.067 L 129.368 12.095 L 136.849 12.095 L 148.998 33.046 L 149.132 33.046 L 149.132 33.046 Q 148.845 27.593 148.845 25.335 L 148.845 25.335 L 148.845 12.095 L 154.183 12.095 Z  M 186.613 26.043 L 186.613 26.043 L 186.613 26.043 Q 186.613 32.988 183.169 36.719 L 183.169 36.719 L 183.169 36.719 Q 179.725 40.45 173.297 40.45 L 173.297 40.45 L 173.297 40.45 Q 166.868 40.45 163.424 36.719 L 163.424 36.719 L 163.424 36.719 Q 159.98 32.988 159.98 26.005 L 159.98 26.005 L 159.98 26.005 Q 159.98 19.021 163.434 15.338 L 163.434 15.338 L 163.434 15.338 Q 166.887 11.655 173.335 11.655 L 173.335 11.655 L 173.335 11.655 Q 179.783 11.655 183.198 15.367 L 183.198 15.367 L 183.198 15.367 Q 186.613 19.079 186.613 26.043 Z  M 166.198 26.043 L 166.198 26.043 L 166.198 26.043 Q 166.198 30.731 167.978 33.103 L 167.978 33.103 L 167.978 33.103 Q 169.757 35.476 173.297 35.476 L 173.297 35.476 L 173.297 35.476 Q 180.395 35.476 180.395 26.043 L 180.395 26.043 L 180.395 26.043 Q 180.395 16.592 173.335 16.592 L 173.335 16.592 L 173.335 16.592 Q 169.795 16.592 167.997 18.974 L 167.997 18.974 L 167.997 18.974 Q 166.198 21.356 166.198 26.043 Z " fill-rule="evenodd" fill="rgb(205,32,39)"/><path d=" M 215.853 17.239 L 215.853 17.239 L 215.853 17.239 Q 213.155 17.239 211.644 19.449 L 211.644 19.449 L 211.644 19.449 Q 210.132 21.659 210.132 25.543 L 210.132 25.543 L 210.132 25.543 Q 210.132 33.617 216.274 33.617 L 216.274 33.617 L 216.274 33.617 Q 218.13 33.617 219.871 33.101 L 219.871 33.101 L 219.871 33.101 Q 221.612 32.584 223.372 31.857 L 223.372 31.857 L 223.372 38.247 L 223.372 38.247 Q 219.871 39.797 215.451 39.797 L 215.451 39.797 L 215.451 39.797 Q 209.118 39.797 205.741 36.124 L 205.741 36.124 L 205.741 36.124 Q 202.364 32.45 202.364 25.505 L 202.364 25.505 L 202.364 25.505 Q 202.364 21.162 204 17.871 L 204 17.871 L 204 17.871 Q 205.636 14.58 208.707 12.81 L 208.707 12.81 L 208.707 12.81 Q 211.778 11.04 215.929 11.04 L 215.929 11.04 L 215.929 11.04 Q 220.464 11.04 224.597 13.011 L 224.597 13.011 L 222.282 18.961 L 222.282 18.961 Q 220.732 18.234 219.182 17.737 L 219.182 17.737 L 219.182 17.737 Q 217.632 17.239 215.853 17.239 Z  M 238.296 29.236 L 236.382 29.236 L 236.382 39.414 L 228.825 39.414 L 228.825 11.442 L 237.99 11.442 L 237.99 11.442 Q 249.393 11.442 249.393 19.708 L 249.393 19.708 L 249.393 19.708 Q 249.393 24.567 244.648 27.227 L 244.648 27.227 L 252.798 39.414 L 244.227 39.414 L 238.296 29.236 Z  M 236.382 17.163 L 236.382 23.553 L 237.798 23.553 L 237.798 23.553 Q 241.759 23.553 241.759 20.052 L 241.759 20.052 L 241.759 20.052 Q 241.759 17.163 237.875 17.163 L 237.875 17.163 L 236.382 17.163 Z  M 262.939 17.125 L 262.939 28.88 L 262.939 39.414 L 255.343 39.414 L 255.343 11.442 L 262.939 11.442 L 262.939 17.125 Z  M 294.412 39.414 L 286.147 39.414 L 284.769 34.172 L 275.681 34.172 L 274.265 39.414 L 265.962 39.414 L 275.088 11.327 L 285.171 11.327 L 294.412 39.414 Z  M 277.25 27.973 L 283.2 27.973 L 281.995 23.381 L 281.995 23.381 Q 281.574 21.85 280.971 19.421 L 280.971 19.421 L 280.971 19.421 Q 280.369 16.991 280.177 15.938 L 280.177 15.938 L 280.177 15.938 Q 280.005 16.914 279.498 19.153 L 279.498 19.153 L 279.498 19.153 Q 278.991 21.391 277.25 27.973 L 277.25 27.973 Z  M 309.89 17.239 L 309.89 17.239 L 309.89 17.239 Q 307.193 17.239 305.681 19.449 L 305.681 19.449 L 305.681 19.449 Q 304.17 21.659 304.17 25.543 L 304.17 25.543 L 304.17 25.543 Q 304.17 33.617 310.311 33.617 L 310.311 33.617 L 310.311 33.617 Q 312.167 33.617 313.908 33.101 L 313.908 33.101 L 313.908 33.101 Q 315.649 32.584 317.41 31.857 L 317.41 31.857 L 317.41 38.247 L 317.41 38.247 Q 313.908 39.797 309.489 39.797 L 309.489 39.797 L 309.489 39.797 Q 303.156 39.797 299.779 36.124 L 299.779 36.124 L 299.779 36.124 Q 296.402 32.45 296.402 25.505 L 296.402 25.505 L 296.402 25.505 Q 296.402 21.162 298.038 17.871 L 298.038 17.871 L 298.038 17.871 Q 299.674 14.58 302.744 12.81 L 302.744 12.81 L 302.744 12.81 Q 305.815 11.04 309.967 11.04 L 309.967 11.04 L 309.967 11.04 Q 314.501 11.04 318.634 13.011 L 318.634 13.011 L 316.319 18.961 L 316.319 18.961 Q 314.769 18.234 313.22 17.737 L 313.22 17.737 L 313.22 17.737 Q 311.67 17.239 309.89 17.239 Z  M 312.856 44.236 L 312.856 44.236 L 312.856 44.236 Q 312.856 46.321 311.421 47.574 L 311.421 47.574 L 311.421 47.574 Q 309.986 48.828 307.614 48.828 L 307.614 48.828 L 307.614 48.828 Q 305.012 48.828 303.538 48.273 L 303.538 48.273 L 303.538 44.351 L 303.538 44.351 Q 305.126 44.867 306.351 44.867 L 306.351 44.867 L 306.351 44.867 Q 307.346 44.867 307.346 43.968 L 307.346 43.968 L 307.346 43.968 Q 307.346 43.337 306.561 42.849 L 306.561 42.849 L 306.561 42.849 Q 305.777 42.361 304.514 42.074 L 304.514 42.074 L 305.892 39.414 L 309.776 39.414 L 309.603 39.969 L 309.603 39.969 Q 311.44 40.715 312.148 41.739 L 312.148 41.739 L 312.148 41.739 Q 312.856 42.763 312.856 44.236 Z  M 349.036 25.39 L 349.036 25.39 L 349.036 25.39 Q 349.036 32.45 345.573 36.124 L 345.573 36.124 L 345.573 36.124 Q 342.11 39.797 335.433 39.797 L 335.433 39.797 L 335.433 39.797 Q 328.851 39.797 325.34 36.104 L 325.34 36.104 L 325.34 36.104 Q 321.829 32.412 321.829 25.352 L 321.829 25.352 L 321.829 25.352 Q 321.829 18.368 325.321 14.685 L 325.321 14.685 L 325.321 14.685 Q 328.813 11.002 335.471 11.002 L 335.471 11.002 L 335.471 11.002 Q 342.148 11.002 345.592 14.657 L 345.592 14.657 L 345.592 14.657 Q 349.036 18.311 349.036 25.39 Z  M 329.789 25.39 L 329.789 25.39 L 329.789 25.39 Q 329.789 33.502 335.433 33.502 L 335.433 33.502 L 335.433 33.502 Q 338.303 33.502 339.69 31.532 L 339.69 31.532 L 339.69 31.532 Q 341.077 29.561 341.077 25.39 L 341.077 25.39 L 341.077 25.39 Q 341.077 21.2 339.671 19.201 L 339.671 19.201 L 339.671 19.201 Q 338.264 17.201 335.471 17.201 L 335.471 17.201 L 335.471 17.201 Q 329.789 17.201 329.789 25.39 Z  M 338.915 9.242 L 338.915 9.242 L 338.915 9.242 Q 338.054 9.242 337.183 8.955 L 337.183 8.955 L 337.183 8.955 Q 336.313 8.668 335.471 8.324 L 335.471 8.324 L 335.471 8.324 Q 334.629 7.979 333.835 7.692 L 333.835 7.692 L 333.835 7.692 Q 333.041 7.405 332.333 7.405 L 332.333 7.405 L 332.333 7.405 Q 331.3 7.405 330.956 9.28 L 330.956 9.28 L 327.512 9.28 L 327.512 9.28 Q 327.722 5.932 328.889 4.334 L 328.889 4.334 L 328.889 4.334 Q 330.056 2.737 332.333 2.737 L 332.333 2.737 L 332.333 2.737 Q 333.06 2.737 333.883 3.024 L 333.883 3.024 L 333.883 3.024 Q 334.706 3.311 335.548 3.655 L 335.548 3.655 L 335.548 3.655 Q 336.389 4 337.212 4.287 L 337.212 4.287 L 337.212 4.287 Q 338.035 4.574 338.762 4.574 L 338.762 4.574 L 338.762 4.574 Q 339.317 4.574 339.642 4.095 L 339.642 4.095 L 339.642 4.095 Q 339.967 3.617 340.139 2.699 L 340.139 2.699 L 343.622 2.699 L 343.622 2.699 Q 343.411 5.894 342.206 7.568 L 342.206 7.568 L 342.206 7.568 Q 341 9.242 338.915 9.242 Z  M 370.694 33.254 L 370.694 39.414 L 354.087 39.414 L 354.087 11.442 L 370.694 11.442 L 370.694 17.507 L 361.645 17.507 L 361.645 21.908 L 370.025 21.908 L 370.025 27.973 L 361.645 27.973 L 361.645 33.254 L 370.694 33.254 Z  M 393.883 30.919 L 393.883 30.919 L 393.883 30.919 Q 393.883 33.521 392.563 35.54 L 392.563 35.54 L 392.563 35.54 Q 391.243 37.558 388.756 38.678 L 388.756 38.678 L 388.756 38.678 Q 386.268 39.797 382.92 39.797 L 382.92 39.797 L 382.92 39.797 Q 380.127 39.797 378.233 39.405 L 378.233 39.405 L 378.233 39.405 Q 376.339 39.013 374.291 38.037 L 374.291 38.037 L 374.291 31.302 L 374.291 31.302 Q 376.453 32.412 378.788 33.034 L 378.788 33.034 L 378.788 33.034 Q 381.122 33.655 383.073 33.655 L 383.073 33.655 L 383.073 33.655 Q 384.757 33.655 385.541 33.072 L 385.541 33.072 L 385.541 33.072 Q 386.326 32.488 386.326 31.57 L 386.326 31.57 L 386.326 31.57 Q 386.326 30.996 386.01 30.565 L 386.01 30.565 L 386.01 30.565 Q 385.694 30.135 384.996 29.695 L 384.996 29.695 L 384.996 29.695 Q 384.298 29.255 381.275 27.896 L 381.275 27.896 L 381.275 27.896 Q 378.539 26.653 377.171 25.486 L 377.171 25.486 L 377.171 25.486 Q 375.803 24.319 375.143 22.807 L 375.143 22.807 L 375.143 22.807 Q 374.483 21.296 374.483 19.229 L 374.483 19.229 L 374.483 19.229 Q 374.483 15.364 377.295 13.202 L 377.295 13.202 L 377.295 13.202 Q 380.108 11.04 385.025 11.04 L 385.025 11.04 L 385.025 11.04 Q 389.368 11.04 393.883 13.049 L 393.883 13.049 L 391.568 18.885 L 391.568 18.885 Q 387.646 17.086 384.795 17.086 L 384.795 17.086 L 384.795 17.086 Q 383.322 17.086 382.652 17.603 L 382.652 17.603 L 382.652 17.603 Q 381.983 18.12 381.983 18.885 L 381.983 18.885 L 381.983 18.885 Q 381.983 19.708 382.834 20.358 L 382.834 20.358 L 382.834 20.358 Q 383.686 21.009 387.455 22.731 L 387.455 22.731 L 387.455 22.731 Q 391.071 24.357 392.477 26.222 L 392.477 26.222 L 392.477 26.222 Q 393.883 28.088 393.883 30.919 Z " fill-rule="evenodd" fill="rgb(33,33,34)"/></g></g></g></svg>