<?xml version="1.0" encoding="UTF-8" standalone="no"?>
<!-- Generator: Gravit.io -->

<svg
   xmlns:dc="http://purl.org/dc/elements/1.1/"
   xmlns:cc="http://creativecommons.org/ns#"
   xmlns:rdf="http://www.w3.org/1999/02/22-rdf-syntax-ns#"
   xmlns:svg="http://www.w3.org/2000/svg"
   xmlns="http://www.w3.org/2000/svg"
   xmlns:sodipodi="http://sodipodi.sourceforge.net/DTD/sodipodi-0.dtd"
   xmlns:inkscape="http://www.inkscape.org/namespaces/inkscape"
   style="isolation:isolate"
   viewBox="0 0 500 500"
   width="500"
   height="500"
   version="1.1"
   id="svg72"
   sodipodi:docname="logo-box.svg"
   inkscape:version="0.92.3 (2405546, 2018-03-11)"
   inkscape:export-filename="C:\wamp\www\brunocriacoes\disc\logo\logo-box.png"
   inkscape:export-xdpi="85"
   inkscape:export-ydpi="85">
  <metadata
     id="metadata76">
    <rdf:RDF>
      <cc:Work
         rdf:about="">
        <dc:format>image/svg+xml</dc:format>
        <dc:type
           rdf:resource="http://purl.org/dc/dcmitype/StillImage" />
        <dc:title></dc:title>
      </cc:Work>
    </rdf:RDF>
  </metadata>
  <sodipodi:namedview
     pagecolor="#ffffff"
     bordercolor="#666666"
     borderopacity="1"
     objecttolerance="10"
     gridtolerance="10"
     guidetolerance="10"
     inkscape:pageopacity="0"
     inkscape:pageshadow="2"
     inkscape:window-width="1366"
     inkscape:window-height="705"
     id="namedview74"
     showgrid="false"
     inkscape:zoom="1.1155741"
     inkscape:cx="156.79216"
     inkscape:cy="205.30906"
     inkscape:window-x="-8"
     inkscape:window-y="-8"
     inkscape:window-maximized="1"
     inkscape:current-layer="svg72" />
  <defs
     id="defs5">
    <clipPath
       id="_clipPath_Q8Zf3YRyL1i0GRoKLbw8LxSPtnvlxCgb">
      <rect
         width="395"
         height="50"
         id="rect2"
         x="0"
         y="0" />
    </clipPath>
  </defs>
  <path
     style="fill:#cd2027;stroke-width:5.12119675"
     inkscape:connector-curvature="0"
     id="path7"
     d="m 282.70141,142.68561 c 40.76984,13.67873 70.18087,52.22085 70.18087,97.57419 0,56.77869 -46.10101,102.8797 -102.88484,102.8797 -56.77871,0 -102.87972,-46.10101 -102.87972,-102.8797 0,-45.35333 29.41104,-83.89546 70.18088,-97.57419 3.44657,-6.7446 8.93137,-12.2806 15.63501,-15.80399 -5.99181,-1.77193 -11.63024,-5.02389 -16.35198,-9.74565 -8.12734,-8.12733 -11.89653,-18.974019 -11.31272,-29.621003 10.64695,-0.583809 21.49367,3.185408 29.62099,11.312743 6.7139,6.71388 10.45237,15.28163 11.21542,24.05938 1.27519,-0.1383 2.57596,-0.20998 3.89212,-0.20998 1.31614,0 2.61695,0.0718 3.89723,0.20998 0.76306,-8.77775 4.50154,-17.3455 11.21541,-24.05938 8.12735,-8.127335 18.96892,-11.896552 29.6159,-11.312743 0.58894,10.646984 -3.18027,21.493673 -11.30761,29.621003 -4.72173,4.72176 -10.3653,7.97372 -16.35199,9.74565 6.70365,3.52339 12.18334,9.05939 15.63503,15.80399 z" />
  <path
     inkscape:connector-curvature="0"
     style="fill:#ffffff;stroke-width:5.12119675"
     d="m 169.16456,210.86471 v 73.48436 h 7.34961 7.34766 14.69921 c 9.79516,0 14.69141,-4.89822 14.69141,-14.69335 v -14.69727 c 0,-4.56319 -2.20163,-6.99823 -6.59765,-7.3125 l -0.006,-0.0625 c 4.39985,-0.24299 6.60351,-2.68137 6.60351,-7.32422 v -14.69727 c 0,-9.63468 -4.89625,-14.53339 -14.69141,-14.69726 h -14.69921 -7.34766 z m 58.78516,0 v 73.48436 h 14.69922 v -29.39062 h 7.34765 c 4.57494,0 7.02527,2.44838 7.34961,7.34766 v 22.04296 h 14.69727 v -29.39062 c 0,-4.81731 -2.44837,-7.26763 -7.34766,-7.34961 4.89929,0 7.34766,-2.45034 7.34766,-7.34961 v -14.69727 c 0,-9.63466 -4.8987,-14.53339 -14.69727,-14.69726 h -14.69726 -7.34961 z m 73.49023,0 c -9.79857,0.16387 -14.69726,5.0626 -14.69726,14.69726 v 44.09376 c 0,9.79513 4.89869,14.69335 14.69726,14.69335 h 14.69727 c 9.79857,0 14.69922,-4.89822 14.69922,-14.69335 v -14.69727 h -14.69922 v 7.34765 c -0.32776,4.89928 -2.77615,7.34959 -7.34766,7.34962 -4.57152,-2e-5 -7.02186,-2.45034 -7.34961,-7.34962 v -29.39454 c 0.32775,-4.89927 2.77809,-7.3496 7.34961,-7.34961 4.57151,1e-5 7.0199,2.45034 7.34766,7.34961 v 7.34766 h 14.69922 v -14.69727 c 0,-9.63466 -4.90065,-14.53339 -14.69922,-14.69726 z m -117.57812,14.69726 h 7.34961 c 4.57151,0 7.02185,2.45034 7.3496,7.34961 -0.32775,4.89929 -2.77809,7.34766 -7.3496,7.34766 h -7.34961 z m 58.78711,0 h 7.34765 c 4.57494,1e-5 7.02527,2.45034 7.34961,7.34961 -0.32434,4.89929 -2.77467,7.34766 -7.34961,7.34766 h -7.34765 z m -58.78711,29.39649 h 7.34961 c 4.57151,0 7.02185,2.44837 7.3496,7.34765 -0.32775,4.89928 -2.77809,7.34962 -7.3496,7.34962 h -7.34961 z"
     id="path10" />
  <path
     style="fill:#1a1a1a;fill-rule:evenodd;stroke-width:1.04361689"
     inkscape:connector-curvature="0"
     id="path62"
     d="m 73.069422,403.40058 v -29.19206 h 9.084686 v 0 q 6.21056,0 9.0158,1.76789 v 0 0 q 2.80525,1.76685 2.80525,5.61989 v 0 0 q 0,2.61635 -1.22834,4.29343 v 0 0 q -1.22729,1.67709 -3.26443,2.01628 v 0 0.20037 0 q 2.77602,0.61887 4.00331,2.31579 v 0 0 q 1.22834,1.69692 1.22834,4.5126 v 0 0 q 0,3.99392 -2.8856,6.23039 v 0 0 q -2.88456,2.23543 -7.83652,2.23543 v 0 z m 6.189696,-24.12008 v 6.48922 h 3.59421 v 0 q 2.51616,0 3.64431,-0.77855 v 0 0 q 1.12815,-0.77853 1.12815,-2.57564 v 0 0 q 0,-1.67709 -1.22834,-2.40658 v 0 0 q -1.22729,-0.72845 -3.88329,-0.72845 v 0 z m 3.83424,11.40152 h -3.83424 v 7.60692 h 4.03357 v 0 q 2.55582,0 3.77372,-0.97787 v 0 0 q 1.2179,-0.9789 1.2179,-2.99518 v 0 0 q 0,-3.63387 -5.19095,-3.63387 z M 106.73442,379.2805 v 7.88662 h 1.99644 v 0 q 2.93569,0 4.33309,-0.97787 v 0 0 q 1.39741,-0.97892 1.39741,-3.0745 v 0 0 q 0,-2.0768 -1.42767,-2.95552 v 0 0 q -1.42767,-0.87873 -4.42285,-0.87873 v 0 z m 3.29469,12.91894 h -3.29469 v 11.20114 h -6.1897 v -29.19206 h 8.50548 v 0 q 5.95071,0 8.80604,2.16655 v 0 0 q 2.85534,2.16655 2.85534,6.57896 v 0 0 q 0,2.57669 -1.41828,4.58253 v 0 0 q -1.41723,2.00687 -4.01271,3.14546 v 0 0 q 6.5894,9.84339 8.58584,12.71856 v 0 h -6.86909 z m 35.10206,-17.99092 h 6.16986 v 18.88947 0 q 0,3.23418 -1.4475,5.67101 v 0 0 q -1.44749,2.43582 -4.18281,3.73302 v 0 0 q -2.73532,1.29827 -6.46938,1.29827 v 0 0 q -5.63136,0 -8.74551,-2.8856 v 0 0 q -3.1152,-2.88457 -3.1152,-7.89705 v 0 -18.80911 h 6.16986 v 17.8709 0 q 0,3.37506 1.35775,4.95196 v 0 0 q 1.35774,1.57795 4.49277,1.57795 v 0 0 q 3.03484,0 4.40302,-1.58838 v 0 0 q 1.36714,-1.58735 1.36714,-4.98119 v 0 z m 39.21599,0 v 29.19206 h -7.86679 L 163.7806,381.31764 h -0.1795 v 0 q 0.37987,5.84948 0.37987,8.34581 v 0 13.73713 h -5.53116 v -29.19206 h 7.80729 l 12.6789,21.86483 h 0.13985 v 0 q -0.29952,-5.69084 -0.29952,-8.04733 v 0 -13.8175 z m 33.84449,14.55638 v 0 0 q 0,7.24792 -3.59421,11.14166 v 0 0 q -3.59422,3.89373 -10.30259,3.89373 v 0 0 q -6.70941,0 -10.30363,-3.89373 v 0 0 Q 190.397,396.01282 190.397,388.72524 v 0 0 q 0,-7.28861 3.60466,-11.13226 v 0 0 q 3.60361,-3.84365 10.33285,-3.84365 v 0 0 q 6.72924,0 10.29319,3.87391 v 0 0 q 3.56395,3.87391 3.56395,11.14166 z m -21.30544,0 v 0 0 q 0,4.89247 1.85764,7.36793 v 0 0 q 1.8566,2.4765 5.551,2.4765 v 0 0 q 7.40759,0 7.40759,-9.84444 v 0 0 q 0,-9.86322 -7.36793,-9.86322 v 0 0 q -3.69441,0 -5.57083,2.4859 v 0 0 q -1.87747,2.48589 -1.87747,7.37733 z" />
  <path
     style="fill:#cd2027;fill-rule:evenodd;stroke-width:1.04361689;fill-opacity:1"
     inkscape:connector-curvature="0"
     id="path64"
     d="m 241.13547,379.5769 v 0 0 q -2.81568,0 -4.39258,2.30638 v 0 0 q -1.57795,2.30641 -1.57795,6.35981 v 0 0 q 0,8.42617 6.40989,8.42617 v 0 0 q 1.93695,0 3.75389,-0.53851 v 0 0 q 1.81694,-0.53955 3.6537,-1.29826 v 0 6.66871 0 q -3.6537,1.61761 -8.26649,1.61761 v 0 0 q -6.60922,0 -10.13351,-3.83321 v 0 0 q -3.5243,-3.83424 -3.5243,-11.08216 v 0 0 q 0,-4.53243 1.70736,-7.96697 v 0 0 q 1.70736,-3.43456 4.9123,-5.28175 v 0 0 q 3.20495,-1.8472 7.537,-1.8472 v 0 0 q 4.73281,0 9.04607,2.05697 v 0 l -2.41597,6.20951 v 0 q -1.6176,-0.7587 -3.23521,-1.27738 v 0 0 q -1.61761,-0.51972 -3.4742,-0.51972 z m 23.42189,12.52027 h -1.99748 v 10.62193 h -7.88661 v -29.19205 h 9.56474 v 0 q 11.90037,0 11.90037,8.62654 v 0 0 q 0,5.07092 -4.95196,7.84695 v 0 l 8.50547,12.71856 h -8.94484 z m -1.99748,-12.5996 v 6.66872 h 1.47776 v 0 q 4.13377,0 4.13377,-3.6537 v 0 0 q 0,-3.01502 -4.05341,-3.01502 v 0 z m 27.71533,-0.0396 v 12.2677 10.99347 h -7.92731 v -29.1921 h 7.92731 z m 32.84575,23.26117 h -8.62549 l -1.4381,-5.47064 h -9.48439 l -1.47776,5.47064 h -8.66515 l 9.52404,-29.31206 h 10.52279 z m -17.91055,-11.94002 h 6.20952 l -1.25756,-4.79229 v 0 q -0.43936,-1.59778 -1.06866,-4.13273 v 0 0 q -0.62826,-2.53599 -0.82863,-3.63491 v 0 0 q -0.1795,1.01856 -0.70862,3.35523 v 0 0 q -0.52911,2.33561 -2.34605,9.2047 z m 34.06366,-11.20218 v 0 0 q -2.81464,0 -4.39259,2.30638 v 0 0 q -1.5769,2.30641 -1.5769,6.35981 v 0 0 q 0,8.42616 6.40885,8.42616 v 0 0 q 1.93695,0 3.75389,-0.5385 v 0 0 q 1.81694,-0.53955 3.65474,-1.29827 v 0 6.66872 0 q -3.65474,1.61761 -8.26648,1.61761 v 0 0 q -6.60923,0 -10.13352,-3.83321 v 0 0 q -3.5243,-3.83424 -3.5243,-11.08217 v 0 0 q 0,-4.53242 1.70736,-7.96696 v 0 0 q 1.70736,-3.43456 4.91126,-5.28175 v 0 0 q 3.20495,-1.8472 7.53804,-1.8472 v 0 0 q 4.73176,0 9.04503,2.05696 v 0 l -2.41597,6.20952 v 0 q -1.61761,-0.7587 -3.23417,-1.27738 v 0 0 q -1.61761,-0.51972 -3.47524,-0.51972 z m 3.09536,28.17451 v 0 0 q 0,2.17595 -1.49759,3.4836 v 0 0 q -1.49759,1.3087 -3.97305,1.3087 v 0 0 q -2.71549,0 -4.25378,-0.5792 v 0 -4.09308 0 q 1.65727,0.53851 2.9357,0.53851 v 0 0 q 1.03839,0 1.03839,-0.93822 v 0 0 q 0,-0.65852 -0.81923,-1.1678 v 0 0 q -0.8182,-0.50929 -2.13629,-0.80881 v 0 l 1.43811,-2.77602 h 4.0534 l -0.18054,0.57921 v 0 q 1.91712,0.77854 2.656,1.8472 v 0 0 q 0.73888,1.06867 0.73888,2.60591 z m 37.75806,-19.668 v 0 0 q 0,7.36794 -3.61404,11.20218 v 0 0 q -3.61405,3.83321 -10.58228,3.83321 v 0 0 q -6.86908,0 -10.53322,-3.85408 v 0 0 q -3.66414,-3.85303 -3.66414,-11.22097 v 0 0 q 0,-7.28862 3.64431,-11.13226 v 0 0 q 3.64431,-3.84364 10.59271,-3.84364 v 0 0 q 6.96823,0 10.56244,3.81442 v 0 0 q 3.59422,3.81338 3.59422,11.20114 z m -20.08649,0 v 0 0 q 0,8.46582 5.89017,8.46582 v 0 0 q 2.99518,0 4.44268,-2.05592 v 0 0 q 1.44749,-2.05697 1.44749,-6.4099 v 0 0 q 0,-4.37275 -1.46732,-6.45894 v 0 0 q -1.46837,-2.08724 -4.38319,-2.08724 v 0 0 q -5.92983,0 -5.92983,8.54618 z m 9.52405,-16.85232 v 0 0 q -0.89856,0 -1.80755,-0.29952 v 0 0 q -0.90795,-0.29951 -1.78667,-0.65852 v 0 0 q -0.87873,-0.36005 -1.70736,-0.65957 v 0 0 q -0.82863,-0.29951 -1.56751,-0.29951 v 0 0 q -1.07806,0 -1.43706,1.95678 v 0 h -3.59422 v 0 q 0.21916,-3.49404 1.43706,-5.16174 v 0 0 q 1.2179,-1.66665 3.59422,-1.66665 v 0 0 q 0.75871,0 1.61761,0.29952 v 0 0 q 0.85889,0.29951 1.73762,0.65852 v 0 0 q 0.87768,0.36005 1.73658,0.65957 v 0 0 q 0.85889,0.29951 1.6176,0.29951 v 0 0 q 0.57921,0 0.91838,-0.49989 v 0 0 q 0.33918,-0.49885 0.51868,-1.45689 v 0 h 3.63492 v 0 q -0.2202,3.33437 -1.47776,5.08137 v 0 0 q -1.2586,1.74702 -3.43454,1.74702 z m 33.16509,25.05932 v 6.42868 H 385.3988 v -29.1921 h 17.33134 v 6.32954 h -9.44368 v 4.59296 h 8.74551 v 6.32953 h -8.74551 v 5.51134 z m 24.20044,-2.43684 v 0 0 q 0,2.71549 -1.37758,4.82255 v 0 0 q -1.37757,2.10602 -3.97305,3.27487 v 0 0 q -2.59652,1.16781 -6.09055,1.16781 v 0 0 q -2.91482,0 -4.89143,-0.4091 v 0 0 q -1.97661,-0.4091 -4.11394,-1.42767 v 0 -7.02876 0 q 2.2563,1.15842 4.69315,1.80755 v 0 0 q 2.4358,0.64808 4.4719,0.64808 v 0 0 q 1.75745,0 2.57564,-0.60842 v 0 0 q 0.81924,-0.60948 0.81924,-1.56752 v 0 0 q 0,-0.59903 -0.32978,-1.04883 v 0 0 q -0.32978,-0.44876 -1.05823,-0.90795 v 0 0 q -0.72844,-0.45919 -3.8833,-1.87747 v 0 0 q -2.85533,-1.29721 -4.283,-2.51511 v 0 0 q -1.42767,-1.2179 -2.11645,-2.79585 v 0 0 q -0.68879,-1.57691 -0.68879,-3.73406 v 0 0 q 0,-4.03358 2.93465,-6.28988 v 0 0 q 2.93569,-2.2563 8.06716,-2.2563 v 0 0 q 4.53243,0 9.24436,2.09663 v 0 l -2.41598,6.09054 v 0 q -4.09306,-1.87746 -7.06841,-1.87746 v 0 0 q -1.53725,0 -2.23647,0.53955 v 0 0 q -0.69818,0.53955 -0.69818,1.33791 v 0 0 q 0,0.8589 0.88811,1.53725 v 0 0 q 0.88916,0.6794 4.82256,2.4765 v 0 0 q 3.77372,1.69692 5.24104,3.64327 v 0 0 q 1.46733,1.94739 1.46733,4.90187 z" />
</svg>
