<?xml version="1.0" encoding="UTF-8" standalone="no"?>
<!-- Generator: Gravit.io -->

<svg
   xmlns:dc="http://purl.org/dc/elements/1.1/"
   xmlns:cc="http://creativecommons.org/ns#"
   xmlns:rdf="http://www.w3.org/1999/02/22-rdf-syntax-ns#"
   xmlns:svg="http://www.w3.org/2000/svg"
   xmlns="http://www.w3.org/2000/svg"
   xmlns:sodipodi="http://sodipodi.sourceforge.net/DTD/sodipodi-0.dtd"
   xmlns:inkscape="http://www.inkscape.org/namespaces/inkscape"
   style="isolation:isolate"
   viewBox="0 0 1366 768"
   width="1366"
   height="768"
   version="1.1"
   id="svg68"
   sodipodi:docname="background.svg"
   inkscape:version="0.92.4 (5da689c313, 2019-01-14)"
   inkscape:export-filename="C:\Users\Windows 10\Desktop\background.png"
   inkscape:export-xdpi="96"
   inkscape:export-ydpi="96">
  <metadata
     id="metadata72">
    <rdf:RDF>
      <cc:Work
         rdf:about="">
        <dc:format>image/svg+xml</dc:format>
        <dc:type
           rdf:resource="http://purl.org/dc/dcmitype/StillImage" />
        <dc:title />
      </cc:Work>
    </rdf:RDF>
  </metadata>
  <sodipodi:namedview
     pagecolor="#ffffff"
     bordercolor="#666666"
     borderopacity="1"
     objecttolerance="10"
     gridtolerance="10"
     guidetolerance="10"
     inkscape:pageopacity="0"
     inkscape:pageshadow="2"
     inkscape:window-width="1366"
     inkscape:window-height="705"
     id="namedview70"
     showgrid="false"
     inkscape:zoom="0.236"
     inkscape:cx="141.49422"
     inkscape:cy="198.44567"
     inkscape:window-x="-8"
     inkscape:window-y="-8"
     inkscape:window-maximized="1"
     inkscape:current-layer="svg68"
     showguides="true"
     inkscape:guide-bbox="true">
    <sodipodi:guide
       position="461.86441,766.94915"
       orientation="0,1"
       id="guide986"
       inkscape:locked="false" />
    <sodipodi:guide
       position="0,364.40678"
       orientation="1,0"
       id="guide988"
       inkscape:locked="false" />
    <sodipodi:guide
       position="1360.1695,377.11864"
       orientation="1,0"
       id="guide990"
       inkscape:locked="false" />
    <sodipodi:guide
       position="1042.3729,0"
       orientation="0,1"
       id="guide992"
       inkscape:locked="false" />
    <sodipodi:guide
       position="553.49576,-596.92797"
       orientation="1,0"
       id="guide837"
       inkscape:locked="false" />
    <sodipodi:guide
       position="545.02119,-603.81356"
       orientation="1,0"
       id="guide839"
       inkscape:locked="false" />
    <sodipodi:guide
       position="507.94492,-603.2839"
       orientation="1,0"
       id="guide841"
       inkscape:locked="false" />
    <sodipodi:guide
       position="460.27543,-596.92797"
       orientation="1,0"
       id="guide843"
       inkscape:locked="false" />
    <sodipodi:guide
       position="369.70339,-616.52543"
       orientation="1,0"
       id="guide845"
       inkscape:locked="false" />
    <sodipodi:guide
       position="156.77966,-516.94915"
       orientation="1,0"
       id="guide847"
       inkscape:locked="false" />
  </sodipodi:namedview>
  <defs
     id="defs5">
    <clipPath
       id="_clipPath_9R3kpurnkP8D52HLFYMDX9gzmcg6Wkqn">
      <rect
         width="500"
         height="500"
         id="rect2"
         x="0"
         y="0" />
    </clipPath>
  </defs>
  <rect
     style="opacity:1;fill:#282a36;fill-opacity:1;stroke:none;stroke-width:6.26666689;stroke-linecap:round;stroke-linejoin:round;stroke-miterlimit:4;stroke-dasharray:none;stroke-dashoffset:0;stroke-opacity:1;paint-order:stroke markers fill"
     id="rect890"
     width="1631.356"
     height="906.77966"
     x="-132.67798"
     y="-69.389832" />
  <path
     d="m 898.67487,-154.90932 c 268.90273,90.224842 462.87353,344.39811 462.87353,643.52153 0,374.50171 -304.0467,678.54839 -678.5484,678.54839 -374.50168,0 -678.548389,-304.04668 -678.548389,-678.54839 0,-299.12342 193.970819,-553.296688 462.873469,-643.52153 22.7501,-44.49026 58.90865,-80.98686 103.11029,-104.21928 -39.49031,-11.71323 -76.69022,-33.15587 -107.83975,-64.30533 -53.59745,-53.59753 -78.45754,-125.1164 -74.59376,-195.33687 70.22504,-3.86386 141.74397,20.99625 195.33694,74.59372 44.28284,44.27829 68.94453,100.7929 73.96257,158.70505 8.43542,-0.94227 17.01519,-1.39764 25.69863,-1.39764 8.68344,0 17.26315,0.45552 25.69863,1.39764 5.01798,-57.91215 29.67978,-114.42676 73.96257,-158.70505 53.59306,-53.59747 125.11201,-78.45758 195.33697,-74.59372 3.86375,70.22047 -20.99633,141.73934 -74.59381,195.33687 -31.14951,31.14946 -68.34945,52.5921 -107.8397,64.30533 44.20168,23.23242 80.36016,59.72902 103.11021,104.21928 z"
     id="path887"
     inkscape:connector-curvature="0"
     style="isolation:isolate;fill:#2b2e3b;fill-opacity:1;stroke-width:4.50853729" />
  <path
     style="isolation:isolate;fill:#2b2e3b;fill-opacity:1;stroke-width:3.65940738"
     inkscape:connector-curvature="0"
     id="path885"
     d="M 858.05504,-64.712372 C 1076.3131,8.5196813 1233.7518,214.8224 1233.7518,457.60943 c 0,303.96871 -246.78309,550.75177 -550.7518,550.75177 -303.96868,0 -550.75176,-246.78306 -550.75176,-550.75177 0,-242.78703 157.43869,-449.0897487 375.69668,-522.321802 18.46539,-36.111038 47.8139,-65.733938 83.69068,-84.590798 -32.05277,-9.50718 -62.24652,-26.91135 -87.5294,-52.19418 -43.503,-43.50306 -63.68098,-101.55219 -60.5449,-158.54746 56.99898,-3.13615 115.04816,17.04185 158.54752,60.54487 35.94269,35.93899 55.95964,81.80974 60.03259,128.81481 6.84671,-0.7648 13.81058,-1.13441 20.85859,-1.13441 7.04802,0 14.01184,0.36973 20.8586,1.13441 4.0729,-47.00507 24.08994,-92.87582 60.03259,-128.81481 43.49943,-43.50302 101.54863,-63.68102 158.54754,-60.54487 3.13606,56.99527 -17.04192,115.0444 -60.54494,158.54746 -25.28287,25.28283 -55.47663,42.687 -87.52936,52.19418 35.87681,18.85686 65.22527,48.47976 83.69061,84.590798 z" />
  <path
     d="m 781.58987,105.0797 c 122.92155,41.24382 211.58998,157.43218 211.58998,294.16827 0,171.19322 -138.98663,310.17985 -310.17985,310.17985 -171.1932,0 -310.17984,-138.98663 -310.17984,-310.17985 0,-136.73609 88.66846,-252.92445 211.58995,-294.16827 10.39959,-20.337505 26.92848,-37.020931 47.13405,-47.640991 -18.05191,-5.354382 -35.05684,-15.156302 -49.29599,-29.395428 -24.50061,-24.5006423 -35.86472,-57.19354 -34.0985,-89.292904 32.10146,-1.76626 64.79438,9.597856 89.29294,34.098478 20.24269,20.2406097 31.51611,46.07472 33.80997,72.54767 3.85602,-0.43073 7.77803,-0.638894 11.74742,-0.638894 3.9694,0 7.89138,0.208234 11.74743,0.638894 2.29383,-26.47295 13.5673,-52.3070603 33.80997,-72.54767 24.4986,-24.500622 57.19153,-35.864738 89.29295,-34.098478 1.76621,32.099364 -9.5979,64.7922617 -34.09852,89.292904 -14.23915,14.239126 -31.24408,24.041046 -49.29597,29.395428 20.20559,10.62006 36.73445,27.303486 47.13401,47.640991 z"
     id="path883"
     inkscape:connector-curvature="0"
     style="isolation:isolate;fill:#363949;fill-opacity:1;stroke-width:2.06095457" />
  <path
     style="isolation:isolate;fill:#414458;fill-opacity:1;stroke-width:1.46816564"
     inkscape:connector-curvature="0"
     id="path881"
     d="m 753.23263,168.04738 c 87.56583,29.38093 150.73071,112.15023 150.73071,209.55714 0,121.9532 -99.01014,220.96334 -220.96334,220.96334 -121.95318,0 -220.96333,-99.01014 -220.96333,-220.96334 0,-97.40691 63.1649,-180.17621 150.73069,-209.55714 7.40837,-14.48786 19.18308,-26.37266 33.57696,-33.93809 -12.85967,-3.81431 -24.9735,-10.79692 -35.11707,-20.94047 -17.45354,-17.453563 -25.54901,-40.743057 -24.2908,-63.609734 22.86817,-1.258234 46.15768,6.83724 63.60976,24.290789 14.42032,14.418837 22.45118,32.822325 24.08526,51.680905 2.74692,-0.30684 5.54085,-0.45513 8.36853,-0.45513 2.82769,0 5.6216,0.14834 8.36854,0.45513 1.63406,-18.85858 9.66496,-37.262068 24.08526,-51.680905 17.45211,-17.453549 40.74163,-25.549023 63.60977,-24.290789 1.2582,22.866677 -6.83727,46.156171 -24.29082,63.609734 -10.14357,10.14355 -22.2574,17.12616 -35.11705,20.94047 14.39389,7.56543 26.16858,19.45023 33.57693,33.93809 z" />
  <path
     d="m 737.52119,202.93488 c 67.97685,22.80825 117.01138,87.06158 117.01138,162.678 0,94.67157 -76.861,171.53257 -171.53257,171.53257 -94.67155,0 -171.53256,-76.861 -171.53256,-171.53257 0,-75.61642 49.03455,-139.86975 117.01137,-162.678 5.75107,-11.24684 14.89171,-20.47294 26.0656,-26.34594 -9.98289,-2.96103 -19.38679,-8.38159 -27.26118,-16.25597 -13.54908,-13.5491 -19.83355,-31.6286 -18.85681,-49.37987 17.75243,-0.97676 35.83194,5.30771 49.37989,18.8568 11.19441,11.19326 17.42872,25.47978 18.69725,40.11959 2.13242,-0.2382 4.30133,-0.35332 6.49644,-0.35332 2.19512,0 4.36402,0.11516 6.49645,0.35332 1.26851,-14.63981 7.50285,-28.92633 18.69725,-40.11959 13.54797,-13.54909 31.62749,-19.83356 49.3799,-18.8568 0.97673,17.75127 -5.30774,35.83077 -18.85683,49.37987 -7.87439,7.87438 -17.27829,13.29494 -27.26116,16.25597 11.17389,5.873 20.31452,15.0991 26.06558,26.34594 z"
     id="path877"
     inkscape:connector-curvature="0"
     style="isolation:isolate;fill:#4c5067;fill-opacity:1;stroke-width:1.13972855" />
  <path
     style="isolation:isolate;fill:#575b75;fill-opacity:1;stroke-width:1.06934309"
     inkscape:connector-curvature="0"
     id="path879"
     d="m 734.15416,210.41142 c 63.77885,21.39969 109.78519,81.68497 109.78519,152.6316 0,88.825 -72.11435,160.93935 -160.93935,160.93935 -88.82498,0 -160.93934,-72.11435 -160.93934,-160.93935 0,-70.94663 46.00636,-131.23191 109.78518,-152.6316 5.3959,-10.55228 13.97205,-19.20861 24.45588,-24.71891 -9.36638,-2.77817 -18.18953,-7.86398 -25.57763,-15.25207 -12.71234,-12.71235 -18.6087,-29.67533 -17.69228,-46.33035 16.65611,-0.91644 33.61909,4.97993 46.33037,17.69228 10.50308,10.502 16.35239,23.90624 17.54258,37.64195 2.00073,-0.22349 4.03569,-0.3315 6.09524,-0.3315 2.05956,0 4.09451,0.10805 6.09525,0.3315 1.19017,-13.73571 7.03951,-27.13995 17.54258,-37.64195 12.7113,-12.71235 29.67429,-18.60872 46.33038,-17.69228 0.91641,16.65502 -4.97995,33.618 -17.6923,46.33035 -7.3881,7.38809 -16.21125,12.4739 -25.57761,15.25207 10.48383,5.5103 19.05997,14.16663 24.45586,24.71891 z" />
  <path
     style="isolation:isolate;fill:#626784;fill-opacity:1;stroke-width:0.91543001"
     inkscape:connector-curvature="0"
     id="path875"
     d="m 726.79142,226.76049 c 54.59901,18.31959 93.98355,69.92787 93.98355,130.66298 0,76.04021 -61.73476,137.77497 -137.77497,137.77497 -76.04019,0 -137.77496,-61.73476 -137.77496,-137.77497 0,-60.73511 39.38455,-112.34339 93.98354,-130.66298 4.61926,-9.03346 11.96102,-16.44387 20.93589,-21.16106 -8.01826,-2.3783 -15.57147,-6.73209 -21.89618,-13.0568 -10.88262,-10.88263 -15.93031,-25.40409 -15.14579,-39.66191 14.25875,-0.78453 28.78021,4.26315 39.66193,15.14578 8.99135,8.99043 13.99875,20.46536 15.01763,32.22406 1.71276,-0.19132 3.45483,-0.28379 5.21794,-0.28379 1.76312,0 3.50518,0.0925 5.21795,0.28379 1.01887,-11.7587 6.02629,-23.23363 15.01763,-32.22406 10.88173,-10.88263 25.4032,-15.93031 39.66194,-15.14578 0.78451,14.25782 -4.26318,28.77928 -15.14581,39.66191 -6.32471,6.32471 -13.87792,10.6785 -21.89616,13.0568 8.97487,4.71719 16.31662,12.1276 20.93587,21.16106 z" />
  <path
     d="m 721.31547,238.91992 c 47.77161,16.0288 82.23126,61.18366 82.23126,114.32407 0,66.53167 -54.01506,120.54673 -120.54673,120.54673 -66.53165,0 -120.54672,-54.01506 -120.54672,-120.54673 0,-53.14041 34.45966,-98.29527 82.23125,-114.32407 4.04164,-7.90386 10.46534,-14.38762 18.31794,-18.51495 -7.01561,-2.0809 -13.62432,-5.89026 -19.15815,-11.42409 -9.52179,-9.5218 -13.93828,-22.22741 -13.25186,-34.70234 12.47574,-0.68643 25.18135,3.73006 34.70235,13.25186 7.86702,7.86621 12.24826,17.90624 13.13973,28.19456 1.49859,-0.1674 3.02282,-0.2483 4.56546,-0.2483 1.54265,0 3.06687,0.0809 4.56547,0.2483 0.89146,-10.28832 5.27272,-20.32835 13.13973,-28.19456 9.52101,-9.5218 22.22662,-13.93829 34.70236,-13.25186 0.68641,12.47493 -3.73008,25.18054 -13.25188,34.70234 -5.53383,5.53383 -12.14254,9.34319 -19.15813,11.42409 7.8526,4.12733 14.27629,10.61109 18.31792,18.51495 z"
     id="path7"
     inkscape:connector-curvature="0"
     style="isolation:isolate;fill:#8a8ea8;fill-opacity:1;stroke-width:0.80095893" />
  <path
     inkscape:connector-curvature="0"
     style="isolation:isolate;fill:#282a36;fill-opacity:1;stroke-width:0.80095893"
     d="m 588.28505,318.80178 v 86.1062 h 8.61031 8.6103 17.22063 c 11.48094,0 17.22061,-5.74122 17.22061,-17.22217 v -17.22062 c 0,-5.34737 -2.57959,-8.20069 -7.73113,-8.56808 l -0.009,-0.0704 c 5.15662,-0.284 7.73895,-3.14105 7.73895,-8.58215 V 336.0239 c 0,-11.28926 -5.73967,-17.0305 -17.22062,-17.22219 h -17.22062 -8.61031 z m 68.88246,0 v 86.1062 H 674.3897 V 370.46519 H 683 c 5.35789,0 8.22799,2.8701 8.61032,8.6103 v 25.83249 h 17.22217 v -34.44279 c 0,-5.64462 -2.87113,-8.51473 -8.61186,-8.61031 5.74073,0 8.61186,-2.86956 8.61186,-8.61031 v -17.22061 c 0,-11.28925 -5.74123,-17.03048 -17.22217,-17.22218 h -17.22062 -8.61031 z m 86.10622,0 c -11.48095,0.1917 -17.22063,5.93293 -17.22063,17.22218 v 51.66185 c 0,11.48095 5.73968,17.22217 17.22063,17.22217 h 17.22061 c 11.48043,0 17.22061,-5.74122 17.22061,-17.22217 v -17.22062 h -17.22061 v 8.6103 c -0.38286,5.74022 -3.25295,8.61032 -8.61031,8.61032 -5.35788,0 -8.22797,-2.8701 -8.6103,-8.61032 v -34.44122 c 0.38233,-5.74022 3.25242,-8.61031 8.6103,-8.61031 5.35736,0 8.22745,2.87009 8.61031,8.61031 v 8.6103 h 17.22061 v -17.22061 c 0,-11.28925 -5.74018,-17.03048 -17.22061,-17.22218 z m -137.76807,17.22218 h 8.61032 c 5.35787,0 8.22798,2.87009 8.61031,8.61031 -0.38233,5.7402 -3.25244,8.6103 -8.61031,8.6103 h -8.61032 z m 68.88404,0 H 683 c 5.35789,0 8.22799,2.87009 8.61032,8.61031 -0.38233,5.7402 -3.25243,8.6103 -8.61032,8.6103 h -8.6103 z m -68.88404,34.44123 h 8.61032 c 5.35787,0 8.22798,2.8701 8.61031,8.6103 -0.38233,5.74022 -3.25244,8.61032 -8.61031,8.61032 h -8.61032 z"
     id="path10" />
  <g
     id="g895"
     transform="matrix(1.3643864,0.92612051,-0.92612051,1.3643864,1061.41,-1967.6861)">
    <path
       d="m 519.2389,1324.1727 c 7.04065,2.3624 12.11936,9.0174 12.11936,16.8493 0,9.8055 -7.96081,17.7663 -17.76635,17.7663 -9.80553,0 -17.76634,-7.9608 -17.76634,-17.7663 0,-7.8319 5.07871,-14.4869 12.11935,-16.8493 0.59567,-1.1649 1.5424,-2.1205 2.69973,-2.7287 -1.03397,-0.3067 -2.00797,-0.8682 -2.82356,-1.6837 -1.40333,-1.4034 -2.05424,-3.276 -1.95307,-5.1145 1.83869,-0.1012 3.71126,0.5497 5.11448,1.953 1.15945,1.1594 1.80516,2.6391 1.93655,4.1554 0.22086,-0.025 0.44551,-0.037 0.67286,-0.037 0.22736,0 0.452,0.012 0.67287,0.037 0.13139,-1.5163 0.7771,-2.996 1.93655,-4.1554 1.40322,-1.4033 3.27579,-2.0542 5.11449,-1.953 0.10116,1.8385 -0.54975,3.7111 -1.95308,5.1145 -0.81559,0.8155 -1.78959,1.377 -2.82356,1.6837 1.15733,0.6082 2.10406,1.5638 2.69972,2.7287 z"
       id="path889"
       inkscape:connector-curvature="0"
       style="isolation:isolate;fill:#282a36;fill-opacity:1;stroke-width:0.11804649" />
    <path
       inkscape:connector-curvature="0"
       style="isolation:isolate;fill:#bc92f7;fill-opacity:1;stroke-width:0.11804649"
       d="m 499.63269,1335.9458 v 12.6905 h 1.269 1.269 2.538 c 1.69208,0 2.538,-0.8462 2.538,-2.5382 v -2.538 c 0,-0.7881 -0.38019,-1.2087 -1.13943,-1.2628 l -10e-4,-0.01 c 0.75999,-0.042 1.14058,-0.463 1.14058,-1.2649 v -2.538 c 0,-1.6638 -0.84592,-2.51 -2.538,-2.5382 h -2.538 -1.269 z m 10.15199,0 v 12.6905 h 2.53824 v -5.0762 h 1.26899 c 0.78966,0 1.21266,0.423 1.26901,1.2689 v 3.8073 h 2.53822 v -5.0762 c 0,-0.8319 -0.42315,-1.2549 -1.26922,-1.269 0.84607,0 1.26922,-0.4229 1.26922,-1.269 v -2.5381 c 0,-1.6638 -0.84615,-2.5099 -2.53822,-2.5382 h -2.538 -1.269 z m 12.69046,0 c -1.69208,0.028 -2.538,0.8744 -2.538,2.5382 v 7.6141 c 0,1.692 0.84592,2.5382 2.538,2.5382 h 2.538 c 1.69201,0 2.538,-0.8462 2.538,-2.5382 v -2.538 h -2.538 v 1.2689 c -0.0564,0.8461 -0.47942,1.2691 -1.269,1.2691 -0.78965,0 -1.21265,-0.423 -1.269,-1.2691 v -5.0759 c 0.0564,-0.846 0.47935,-1.2691 1.269,-1.2691 0.78958,0 1.21258,0.4231 1.269,1.2691 v 1.269 h 2.538 v -2.5381 c 0,-1.6638 -0.84599,-2.5099 -2.538,-2.5382 z m -20.30445,2.5382 h 1.269 c 0.78965,0 1.21265,0.4231 1.269,1.2691 -0.0564,0.846 -0.47935,1.269 -1.269,1.269 h -1.269 z m 10.15223,0 h 1.26899 c 0.78966,0 1.21266,0.4231 1.26901,1.2691 -0.0564,0.846 -0.47935,1.269 -1.26901,1.269 h -1.26899 z m -10.15223,5.0761 h 1.269 c 0.78965,0 1.21265,0.423 1.269,1.2689 -0.0564,0.8461 -0.47935,1.2691 -1.269,1.2691 h -1.269 z"
       id="path891" />
  </g>
  <g
     transform="matrix(0.92342572,0.36238227,-0.36238227,0.92342572,618.6895,-858.70382)"
     id="g901">
    <path
       style="isolation:isolate;fill:#282a36;fill-opacity:1;stroke-width:0.11804649"
       inkscape:connector-curvature="0"
       id="path897"
       d="m 519.2389,1324.1727 c 7.04065,2.3624 12.11936,9.0174 12.11936,16.8493 0,9.8055 -7.96081,17.7663 -17.76635,17.7663 -9.80553,0 -17.76634,-7.9608 -17.76634,-17.7663 0,-7.8319 5.07871,-14.4869 12.11935,-16.8493 0.59567,-1.1649 1.5424,-2.1205 2.69973,-2.7287 -1.03397,-0.3067 -2.00797,-0.8682 -2.82356,-1.6837 -1.40333,-1.4034 -2.05424,-3.276 -1.95307,-5.1145 1.83869,-0.1012 3.71126,0.5497 5.11448,1.953 1.15945,1.1594 1.80516,2.6391 1.93655,4.1554 0.22086,-0.025 0.44551,-0.037 0.67286,-0.037 0.22736,0 0.452,0.012 0.67287,0.037 0.13139,-1.5163 0.7771,-2.996 1.93655,-4.1554 1.40322,-1.4033 3.27579,-2.0542 5.11449,-1.953 0.10116,1.8385 -0.54975,3.7111 -1.95308,5.1145 -0.81559,0.8155 -1.78959,1.377 -2.82356,1.6837 1.15733,0.6082 2.10406,1.5638 2.69972,2.7287 z" />
    <path
       id="path899"
       d="m 499.63269,1335.9458 v 12.6905 h 1.269 1.269 2.538 c 1.69208,0 2.538,-0.8462 2.538,-2.5382 v -2.538 c 0,-0.7881 -0.38019,-1.2087 -1.13943,-1.2628 l -10e-4,-0.01 c 0.75999,-0.042 1.14058,-0.463 1.14058,-1.2649 v -2.538 c 0,-1.6638 -0.84592,-2.51 -2.538,-2.5382 h -2.538 -1.269 z m 10.15199,0 v 12.6905 h 2.53824 v -5.0762 h 1.26899 c 0.78966,0 1.21266,0.423 1.26901,1.2689 v 3.8073 h 2.53822 v -5.0762 c 0,-0.8319 -0.42315,-1.2549 -1.26922,-1.269 0.84607,0 1.26922,-0.4229 1.26922,-1.269 v -2.5381 c 0,-1.6638 -0.84615,-2.5099 -2.53822,-2.5382 h -2.538 -1.269 z m 12.69046,0 c -1.69208,0.028 -2.538,0.8744 -2.538,2.5382 v 7.6141 c 0,1.692 0.84592,2.5382 2.538,2.5382 h 2.538 c 1.69201,0 2.538,-0.8462 2.538,-2.5382 v -2.538 h -2.538 v 1.2689 c -0.0564,0.8461 -0.47942,1.2691 -1.269,1.2691 -0.78965,0 -1.21265,-0.423 -1.269,-1.2691 v -5.0759 c 0.0564,-0.846 0.47935,-1.2691 1.269,-1.2691 0.78958,0 1.21258,0.4231 1.269,1.2691 v 1.269 h 2.538 v -2.5381 c 0,-1.6638 -0.84599,-2.5099 -2.538,-2.5382 z m -20.30445,2.5382 h 1.269 c 0.78965,0 1.21265,0.4231 1.269,1.2691 -0.0564,0.846 -0.47935,1.269 -1.269,1.269 h -1.269 z m 10.15223,0 h 1.26899 c 0.78966,0 1.21266,0.4231 1.26901,1.2691 -0.0564,0.846 -0.47935,1.269 -1.26901,1.269 h -1.26899 z m -10.15223,5.0761 h 1.269 c 0.78965,0 1.21265,0.423 1.269,1.2689 -0.0564,0.8461 -0.47935,1.2691 -1.269,1.2691 h -1.269 z"
       style="isolation:isolate;fill:#bc92f7;fill-opacity:1;stroke-width:0.11804649"
       inkscape:connector-curvature="0" />
  </g>
  <g
     id="g907"
     transform="matrix(0.63556509,-0.19311444,0.19311444,0.63556509,174.97743,-239.78428)">
    <path
       d="m 519.2389,1324.1727 c 7.04065,2.3624 12.11936,9.0174 12.11936,16.8493 0,9.8055 -7.96081,17.7663 -17.76635,17.7663 -9.80553,0 -17.76634,-7.9608 -17.76634,-17.7663 0,-7.8319 5.07871,-14.4869 12.11935,-16.8493 0.59567,-1.1649 1.5424,-2.1205 2.69973,-2.7287 -1.03397,-0.3067 -2.00797,-0.8682 -2.82356,-1.6837 -1.40333,-1.4034 -2.05424,-3.276 -1.95307,-5.1145 1.83869,-0.1012 3.71126,0.5497 5.11448,1.953 1.15945,1.1594 1.80516,2.6391 1.93655,4.1554 0.22086,-0.025 0.44551,-0.037 0.67286,-0.037 0.22736,0 0.452,0.012 0.67287,0.037 0.13139,-1.5163 0.7771,-2.996 1.93655,-4.1554 1.40322,-1.4033 3.27579,-2.0542 5.11449,-1.953 0.10116,1.8385 -0.54975,3.7111 -1.95308,5.1145 -0.81559,0.8155 -1.78959,1.377 -2.82356,1.6837 1.15733,0.6082 2.10406,1.5638 2.69972,2.7287 z"
       id="path903"
       inkscape:connector-curvature="0"
       style="isolation:isolate;fill:#282a36;fill-opacity:1;stroke-width:0.11804649" />
    <path
       inkscape:connector-curvature="0"
       style="isolation:isolate;fill:#bc92f7;fill-opacity:1;stroke-width:0.11804649"
       d="m 499.63269,1335.9458 v 12.6905 h 1.269 1.269 2.538 c 1.69208,0 2.538,-0.8462 2.538,-2.5382 v -2.538 c 0,-0.7881 -0.38019,-1.2087 -1.13943,-1.2628 l -10e-4,-0.01 c 0.75999,-0.042 1.14058,-0.463 1.14058,-1.2649 v -2.538 c 0,-1.6638 -0.84592,-2.51 -2.538,-2.5382 h -2.538 -1.269 z m 10.15199,0 v 12.6905 h 2.53824 v -5.0762 h 1.26899 c 0.78966,0 1.21266,0.423 1.26901,1.2689 v 3.8073 h 2.53822 v -5.0762 c 0,-0.8319 -0.42315,-1.2549 -1.26922,-1.269 0.84607,0 1.26922,-0.4229 1.26922,-1.269 v -2.5381 c 0,-1.6638 -0.84615,-2.5099 -2.53822,-2.5382 h -2.538 -1.269 z m 12.69046,0 c -1.69208,0.028 -2.538,0.8744 -2.538,2.5382 v 7.6141 c 0,1.692 0.84592,2.5382 2.538,2.5382 h 2.538 c 1.69201,0 2.538,-0.8462 2.538,-2.5382 v -2.538 h -2.538 v 1.2689 c -0.0564,0.8461 -0.47942,1.2691 -1.269,1.2691 -0.78965,0 -1.21265,-0.423 -1.269,-1.2691 v -5.0759 c 0.0564,-0.846 0.47935,-1.2691 1.269,-1.2691 0.78958,0 1.21258,0.4231 1.269,1.2691 v 1.269 h 2.538 v -2.5381 c 0,-1.6638 -0.84599,-2.5099 -2.538,-2.5382 z m -20.30445,2.5382 h 1.269 c 0.78965,0 1.21265,0.4231 1.269,1.2691 -0.0564,0.846 -0.47935,1.269 -1.269,1.269 h -1.269 z m 10.15223,0 h 1.26899 c 0.78966,0 1.21266,0.4231 1.26901,1.2691 -0.0564,0.846 -0.47935,1.269 -1.26901,1.269 h -1.26899 z m -10.15223,5.0761 h 1.269 c 0.78965,0 1.21265,0.423 1.269,1.2689 -0.0564,0.8461 -0.47935,1.2691 -1.269,1.2691 h -1.269 z"
       id="path905" />
  </g>
  <g
     transform="matrix(2.7252046,-0.56432927,0.56432927,2.7252046,-1250.4573,-2873.8826)"
     id="g913">
    <path
       style="isolation:isolate;fill:#282a36;fill-opacity:1;stroke-width:0.11804649"
       inkscape:connector-curvature="0"
       id="path909"
       d="m 519.2389,1324.1727 c 7.04065,2.3624 12.11936,9.0174 12.11936,16.8493 0,9.8055 -7.96081,17.7663 -17.76635,17.7663 -9.80553,0 -17.76634,-7.9608 -17.76634,-17.7663 0,-7.8319 5.07871,-14.4869 12.11935,-16.8493 0.59567,-1.1649 1.5424,-2.1205 2.69973,-2.7287 -1.03397,-0.3067 -2.00797,-0.8682 -2.82356,-1.6837 -1.40333,-1.4034 -2.05424,-3.276 -1.95307,-5.1145 1.83869,-0.1012 3.71126,0.5497 5.11448,1.953 1.15945,1.1594 1.80516,2.6391 1.93655,4.1554 0.22086,-0.025 0.44551,-0.037 0.67286,-0.037 0.22736,0 0.452,0.012 0.67287,0.037 0.13139,-1.5163 0.7771,-2.996 1.93655,-4.1554 1.40322,-1.4033 3.27579,-2.0542 5.11449,-1.953 0.10116,1.8385 -0.54975,3.7111 -1.95308,5.1145 -0.81559,0.8155 -1.78959,1.377 -2.82356,1.6837 1.15733,0.6082 2.10406,1.5638 2.69972,2.7287 z" />
    <path
       id="path911"
       d="m 499.63269,1335.9458 v 12.6905 h 1.269 1.269 2.538 c 1.69208,0 2.538,-0.8462 2.538,-2.5382 v -2.538 c 0,-0.7881 -0.38019,-1.2087 -1.13943,-1.2628 l -10e-4,-0.01 c 0.75999,-0.042 1.14058,-0.463 1.14058,-1.2649 v -2.538 c 0,-1.6638 -0.84592,-2.51 -2.538,-2.5382 h -2.538 -1.269 z m 10.15199,0 v 12.6905 h 2.53824 v -5.0762 h 1.26899 c 0.78966,0 1.21266,0.423 1.26901,1.2689 v 3.8073 h 2.53822 v -5.0762 c 0,-0.8319 -0.42315,-1.2549 -1.26922,-1.269 0.84607,0 1.26922,-0.4229 1.26922,-1.269 v -2.5381 c 0,-1.6638 -0.84615,-2.5099 -2.53822,-2.5382 h -2.538 -1.269 z m 12.69046,0 c -1.69208,0.028 -2.538,0.8744 -2.538,2.5382 v 7.6141 c 0,1.692 0.84592,2.5382 2.538,2.5382 h 2.538 c 1.69201,0 2.538,-0.8462 2.538,-2.5382 v -2.538 h -2.538 v 1.2689 c -0.0564,0.8461 -0.47942,1.2691 -1.269,1.2691 -0.78965,0 -1.21265,-0.423 -1.269,-1.2691 v -5.0759 c 0.0564,-0.846 0.47935,-1.2691 1.269,-1.2691 0.78958,0 1.21258,0.4231 1.269,1.2691 v 1.269 h 2.538 v -2.5381 c 0,-1.6638 -0.84599,-2.5099 -2.538,-2.5382 z m -20.30445,2.5382 h 1.269 c 0.78965,0 1.21265,0.4231 1.269,1.2691 -0.0564,0.846 -0.47935,1.269 -1.269,1.269 h -1.269 z m 10.15223,0 h 1.26899 c 0.78966,0 1.21266,0.4231 1.26901,1.2691 -0.0564,0.846 -0.47935,1.269 -1.26901,1.269 h -1.26899 z m -10.15223,5.0761 h 1.269 c 0.78965,0 1.21265,0.423 1.269,1.2689 -0.0564,0.8461 -0.47935,1.2691 -1.269,1.2691 h -1.269 z"
       style="isolation:isolate;fill:#bc92f7;fill-opacity:1;stroke-width:0.11804649"
       inkscape:connector-curvature="0" />
  </g>
</svg>
